<?xml version="1.0" encoding="UTF-8" standalone="no"?>
<!-- Created with Inkscape (http://www.inkscape.org/) -->

<svg
   width="200"
   height="400"
   viewBox="0 0 52.916668 105.83333"
   version="1.1"
   id="svg8"
   inkscape:version="1.1.1 (3bf5ae0d25, 2021-09-20)"
   sodipodi:docname="BCNLAT_B_T_IALAB.svg"
   xmlns:inkscape="http://www.inkscape.org/namespaces/inkscape"
   xmlns:sodipodi="http://sodipodi.sourceforge.net/DTD/sodipodi-0.dtd"
   xmlns="http://www.w3.org/2000/svg"
   xmlns:svg="http://www.w3.org/2000/svg"
   xmlns:rdf="http://www.w3.org/1999/02/22-rdf-syntax-ns#"
   xmlns:cc="http://creativecommons.org/ns#"
   xmlns:dc="http://purl.org/dc/elements/1.1/">
  <sodipodi:namedview
     id="base"
     pagecolor="#ffffff"
     bordercolor="#666666"
     borderopacity="1.0"
     inkscape:pageopacity="0.0"
     inkscape:pageshadow="2"
     inkscape:zoom="8.0546878"
     inkscape:cx="80.636272"
     inkscape:cy="146.06401"
     inkscape:document-units="mm"
     inkscape:current-layer="layer1-7"
     showgrid="true"
     fit-margin-top="0"
     fit-margin-left="0"
     fit-margin-right="0"
     fit-margin-bottom="0"
     units="px"
     inkscape:window-width="2560"
     inkscape:window-height="1377"
     inkscape:window-x="-8"
     inkscape:window-y="-8"
     inkscape:window-maximized="1"
     inkscape:pagecheckerboard="0">
    <inkscape:grid
       originy="-1.6023925e-007"
       originx="0"
       id="grid23"
       type="xygrid" />
    <sodipodi:guide
       id="guide350"
       position="26.4583333328,0"
       orientation="1,0"
       inkscape:locked="false" />
    <sodipodi:guide
       id="guide352"
       position="0,52.9166666656"
       orientation="0,1"
       inkscape:locked="false" />
  </sodipodi:namedview>
  <defs
     id="defs2" />
  <metadata
     id="metadata5">
    <rdf:RDF>
      <cc:Work
         rdf:about="">
        <dc:format>image/svg+xml</dc:format>
        <dc:type
           rdf:resource="http://purl.org/dc/dcmitype/StillImage" />
      </cc:Work>
    </rdf:RDF>
  </metadata>
  <g
     transform="translate(-51.247666,-50.62626)"
     id="layer1"
     inkscape:groupmode="layer"
     inkscape:label="Calque 1">
    <g
       id="g107"
       transform="translate(24.786129,73.189315)">
      <g
         inkscape:label="Calque 1"
         id="layer1-8"
         transform="translate(-72.445977,-88.41006)">
        <g
           transform="translate(90.098513,-33.584874)"
           id="g949">
          <g
             inkscape:label="Calque 1"
             id="layer1-6"
             transform="translate(-89.897093,33.690368)">
            <g
               transform="translate(10.842793,-36.169005)"
               id="g858">
              <g
                 inkscape:label="Calque 1"
                 id="layer1-07"
                 transform="translate(-10.938001,36.004736)">
                <g
                   id="g784"
                   transform="translate(5.7796696,-40.33357)">
                  <g
                     transform="translate(-3.1304918,40.367138)"
                     id="layer1-5"
                     inkscape:label="Calque 1">
                    <g
                       transform="translate(3.0227785,-38.420563)"
                       id="g740">
                      <g
                         transform="translate(108.44923,-46.849351)"
                         inkscape:label="Calque 1"
                         id="layer1-7">
                        <g
                           id="g900">
                          <rect
                             style="fill:#00d400;fill-opacity:1;stroke:none;stroke-width:0.264583"
                             id="rect2985-3"
                             width="4.0574784"
                             height="16.861076"
                             x="9.2040462"
                             y="184.82898" />
                          <path
                             style="fill:#000407;fill-opacity:1;fill-rule:evenodd;stroke:none;stroke-width:0.264583"
                             d="m 8.942797,184.5744 v 17.13177 c -0.450992,0.43627 -0.779645,0.99778 -0.926041,1.62884 H 5.784334 l -0.03307,1.49655 h 2.265495 c 0.340603,1.46393 1.649219,2.55488 3.216341,2.55488 1.567643,0 2.876272,-1.09022 3.216341,-2.55488 l 2.199349,-0.008 v -1.49655 l -2.199349,0.008 c -0.155226,-0.66912 -0.515025,-1.25708 -1.008724,-1.70325 V 184.5744 Z m 0.595313,0.51263 h 3.26595 l 0.0088,16.29479 c -0.965788,-0.6933 -2.115871,-0.71085 -3.265951,0 z m 1.694987,17.00775 c 1.095375,0 1.984375,0.889 1.984375,1.98437 0,1.09538 -0.889,1.98438 -1.984375,1.98438 -1.095375,0 -1.984375,-0.889 -1.984375,-1.98438 0,-1.09537 0.889,-1.98437 1.984375,-1.98437 z"
                             id="path2520-0"
                             inkscape:connector-curvature="0"
                             sodipodi:nodetypes="ccccccsccccccccccccsssss" />
                          <path
                             inkscape:connector-curvature="0"
                             id="path42-7"
                             style="fill:#231f20;fill-opacity:1;fill-rule:nonzero;stroke:none;stroke-width:1.67737"
                             d="m 9.8475977,180.75102 2.4249313,-0.0309 0.0034,-3.42643 -2.4736976,0.0337 0.045457,3.42363 m -0.7051099,0.67248 -0.013587,-4.70678 3.7567325,-0.048 0.06191,4.70769 -3.8050192,0.0471 m 1.6551372,2.83339 -0.0318,-2.37665 0.571224,-0.007 0.03023,2.3772 z" />
                          <path
                             inkscape:connector-curvature="0"
                             id="path4452"
                             d="m 9.8592755,180.58834 c -0.00757,-0.0888 -0.020513,-0.85697 -0.028756,-1.70698 l -0.014989,-1.54548 1.2223175,-0.0158 c 0.672274,-0.009 1.224144,-0.0131 1.226377,-0.01 0.0022,0.003 -6.61e-4,0.77174 -0.0064,1.70748 l -0.0105,1.70133 h -0.659896 c -0.362943,0 -0.897148,0.007 -1.187122,0.0154 l -0.5272265,0.0153 z"
                             style="fill:#00d400;fill-opacity:1;stroke-width:0.0233861" />
                          <path
                             inkscape:connector-curvature="0"
                             id="path4454"
                             d="m 12.249103,180.63839 c -10e-7,-0.044 0.0023,-0.45449 0.0051,-0.91209 0.0081,-1.31823 0.0093,-1.52493 0.0093,-1.58595 v -0.0574 h 0.0052 0.0052 v 0.33142 c 0,0.18228 -6.08e-4,0.77527 -0.0014,1.31775 l -0.0014,0.98633 h -0.01103 -0.01103 z"
                             style="fill:#d40000;fill-opacity:1;stroke-width:0.00206706" />
                          <path
                             inkscape:connector-curvature="0"
                             id="path4456"
                             d="m 9.9321968,180.74864 c 0.034138,-0.001 0.5137212,-0.0149 0.5482872,-0.0158 0.346691,-0.009 0.807317,-0.0134 1.308189,-0.0135 0.230198,-10e-6 0.275694,2.2e-4 0.275694,0.001 0,0.001 -0.0087,0.002 -0.04728,0.002 -0.129073,0.002 -2.0754451,0.0265 -2.0843695,0.0263 l -0.010335,-2.1e-4 z"
                             style="fill:#d40000;fill-opacity:1;stroke-width:0.00103353" />
                          <path
                             inkscape:connector-curvature="0"
                             id="path4458"
                             d="m 9.8478198,180.72146 c -3.704e-4,-0.0161 -0.00365,-0.26011 -0.00731,-0.54234 -0.00366,-0.28223 -0.00694,-0.52722 -0.00731,-0.54441 l -6.615e-4,-0.0313 h 0.003 0.003 l 0.00127,0.0953 c 0.00527,0.39677 0.013086,0.77926 0.017732,0.86763 7.409e-4,0.0141 0.012311,0.1558 0.014766,0.18088 l 3.175e-4,0.003 h -0.012078 -0.012076 z"
                             style="fill:#d40000;fill-opacity:1;stroke-width:0.00103353" />
                          <path
                             inkscape:connector-curvature="0"
                             id="path4460"
                             d="m 12.264271,177.85883 c 10e-4,-0.30377 0.0011,-0.5469 1.74e-4,-0.54837 -0.0022,-0.004 -0.547772,3.4e-4 -1.181951,0.009 -0.06452,8.4e-4 -0.123468,0.002 -0.131,0.002 l -0.0137,1e-5 v -0.004 -0.004 l 0.04057,-6.9e-4 c 0.02231,-3.7e-4 0.31427,-0.004 0.648797,-0.009 0.334528,-0.005 0.617185,-0.008 0.628128,-0.008 l 0.0199,-2.9e-4 -10e-7,0.37216 c -10e-7,0.20469 -3.18e-4,0.382 -6.88e-4,0.39403 l -6.88e-4,0.0219 h -0.0051 -0.0051 z"
                             style="fill:#d40000;fill-opacity:1;stroke-width:0.00103353" />
                        </g>
                      </g>
                    </g>
                  </g>
                </g>
              </g>
            </g>
          </g>
        </g>
      </g>
    </g>
  </g>
</svg>
