<?xml version="1.0" encoding="UTF-8" standalone="no"?>
<!-- Created with Inkscape (http://www.inkscape.org/) -->

<svg
   width="200"
   height="400"
   viewBox="0 0 52.916668 105.83333"
   version="1.1"
   id="svg8"
   inkscape:version="1.1.1 (3bf5ae0d25, 2021-09-20)"
   sodipodi:docname="BCNLAT_T_T_IALAB.svg"
   xmlns:inkscape="http://www.inkscape.org/namespaces/inkscape"
   xmlns:sodipodi="http://sodipodi.sourceforge.net/DTD/sodipodi-0.dtd"
   xmlns="http://www.w3.org/2000/svg"
   xmlns:svg="http://www.w3.org/2000/svg"
   xmlns:rdf="http://www.w3.org/1999/02/22-rdf-syntax-ns#"
   xmlns:cc="http://creativecommons.org/ns#"
   xmlns:dc="http://purl.org/dc/elements/1.1/">
  <sodipodi:namedview
     id="base"
     pagecolor="#ffffff"
     bordercolor="#666666"
     borderopacity="1.0"
     inkscape:pageopacity="0.0"
     inkscape:pageshadow="2"
     inkscape:zoom="2.8284271"
     inkscape:cx="33.764349"
     inkscape:cy="83.968931"
     inkscape:document-units="mm"
     inkscape:current-layer="layer1-81"
     showgrid="true"
     fit-margin-top="0"
     fit-margin-left="0"
     fit-margin-right="0"
     fit-margin-bottom="0"
     units="px"
     inkscape:window-width="2560"
     inkscape:window-height="1377"
     inkscape:window-x="-8"
     inkscape:window-y="-8"
     inkscape:window-maximized="1"
     inkscape:pagecheckerboard="0">
    <inkscape:grid
       originy="-1.6023925e-007"
       originx="0"
       id="grid23"
       type="xygrid" />
    <sodipodi:guide
       id="guide350"
       position="26.4583333328,0"
       orientation="1,0"
       inkscape:locked="false" />
    <sodipodi:guide
       id="guide352"
       position="0,52.9166666656"
       orientation="0,1"
       inkscape:locked="false" />
  </sodipodi:namedview>
  <defs
     id="defs2" />
  <metadata
     id="metadata5">
    <rdf:RDF>
      <cc:Work
         rdf:about="">
        <dc:format>image/svg+xml</dc:format>
        <dc:type
           rdf:resource="http://purl.org/dc/dcmitype/StillImage" />
      </cc:Work>
    </rdf:RDF>
  </metadata>
  <g
     transform="translate(-51.247666,-50.62626)"
     id="layer1"
     inkscape:groupmode="layer"
     inkscape:label="Calque 1">
    <g
       id="g107"
       transform="translate(24.786129,73.189315)">
      <g
         inkscape:label="Calque 1"
         id="layer1-8"
         transform="translate(-72.445977,-88.41006)">
        <g
           transform="translate(90.098513,-33.584874)"
           id="g949">
          <g
             inkscape:label="Calque 1"
             id="layer1-6"
             transform="translate(-89.897093,33.690368)">
            <g
               transform="translate(10.842793,-36.169005)"
               id="g858">
              <g
                 inkscape:label="Calque 1"
                 id="layer1-07"
                 transform="translate(-10.938001,36.004736)">
                <g
                   id="g784"
                   transform="translate(5.7796696,-40.33357)">
                  <g
                     transform="translate(-3.1304918,40.367138)"
                     id="layer1-5"
                     inkscape:label="Calque 1">
                    <g
                       transform="translate(3.0227785,-38.420563)"
                       id="g740">
                      <g
                         transform="translate(104.5839,87.848163)"
                         id="layer1-81"
                         inkscape:label="Calque 1">
                        <g
                           id="g1061">
                          <path
                             style="fill:#d40000;fill-opacity:1;stroke-width:0.0944941"
                             d="m 13.438974,58.506865 -0.287278,-8.195587 1.852083,-0.264583 1.852083,0.264583 v 8.202084 8.466667 L 16.326696,66.450862 C 15.812422,66.24701 15.752974,66.1755 15.290892,66.145845 c -0.572509,-0.03674 -0.588609,0.106229 -1.080863,0.305017 l -0.79375,0.529167 z"
                             id="path4197"
                             inkscape:connector-curvature="0"
                             sodipodi:nodetypes="ccccccccccc" />
                          <g
                             id="g4180"
                             transform="matrix(0.26458333,0,0,0.26458333,9.63457,49.846086)">
                            <path
                               sodipodi:nodetypes="ccccccsccccccccccccsssss"
                               inkscape:connector-curvature="0"
                               id="path2520-0"
                               d="m 12.0625,0 v 64.75 c -1.70454,1.6489 -2.94669,3.77114 -3.5,6.15625 H 0.125 L 0,76.5625 h 8.5625 c 1.28732,5.53295 6.23327,9.65624 12.15625,9.65625 5.92495,0 10.87095,-4.12052 12.15625,-9.65625 l 8.3125,-0.0312 v -5.65625 l -8.3125,0.0312 c -0.58668,-2.52896 -1.94655,-4.75116 -3.8125,-6.4375 V 0 Z m 2.25,1.9375 h 12.34375 l 0.0332,61.58662 c -3.65022,-2.62034 -7.99699,-2.68668 -12.34375,0 z m 6.40625,64.28125 c 4.14,0 7.5,3.36 7.5,7.5 0,4.14 -3.36,7.5 -7.5,7.5 -4.14,0 -7.5,-3.36 -7.5,-7.5 0,-4.14 3.36,-7.5 7.5,-7.5 z"
                               style="fill:#000407;fill-opacity:1;fill-rule:evenodd;stroke:none" />
                          </g>
                          <g
                             transform="matrix(2.0544825,-0.67712135,-0.67712135,-2.0544825,13.34499,44.771979)"
                             id="g52">
                            <path
                               id="path54"
                               style="fill:#231f20;fill-opacity:1;fill-rule:nonzero;stroke:none"
                               d="M 0,0 1.586,-0.531 1.311,1.326 0,0 M -0.744,-0.17 1.59,2.16 2.08,-1.113 -0.744,-0.17 m 0.697,-2.027 0.449,1.345 0.325,-0.107 -0.452,-1.346 z"
                               inkscape:connector-curvature="0" />
                          </g>
                          <path
                             style="fill:#d40000;fill-opacity:1;stroke-width:0.0935442"
                             d="m 14.279296,42.982341 c 0.47387,-0.949383 0.8689,-1.717616 0.87784,-1.707183 0.0089,0.01043 0.400063,0.787202 0.869156,1.726154 l 0.852898,1.707184 h -1.730738 -1.730737 z"
                             id="path1537"
                             inkscape:connector-curvature="0" />
                        </g>
                      </g>
                    </g>
                  </g>
                </g>
              </g>
            </g>
          </g>
        </g>
      </g>
    </g>
  </g>
</svg>
