<?xml version="1.0" encoding="UTF-8" standalone="no"?>
<!-- Created with Inkscape (http://www.inkscape.org/) -->

<svg
   xmlns:dc="http://purl.org/dc/elements/1.1/"
   xmlns:cc="http://creativecommons.org/ns#"
   xmlns:rdf="http://www.w3.org/1999/02/22-rdf-syntax-ns#"
   xmlns:svg="http://www.w3.org/2000/svg"
   xmlns="http://www.w3.org/2000/svg"
   xmlns:sodipodi="http://sodipodi.sourceforge.net/DTD/sodipodi-0.dtd"
   xmlns:inkscape="http://www.inkscape.org/namespaces/inkscape"
   width="200"
   height="400"
   viewBox="0 0 52.916668 105.83333"
   version="1.1"
   id="svg8"
   inkscape:version="0.92.3 (2405546, 2018-03-11)"
   sodipodi:docname="BCNLAT_B_T.svg">
  <sodipodi:namedview
     id="base"
     pagecolor="#ffffff"
     bordercolor="#666666"
     borderopacity="1.0"
     inkscape:pageopacity="0.0"
     inkscape:pageshadow="2"
     inkscape:zoom="1.4238811"
     inkscape:cx="-9.5703135"
     inkscape:cy="120.22749"
     inkscape:document-units="mm"
     inkscape:current-layer="g4353"
     showgrid="true"
     fit-margin-top="0"
     fit-margin-left="0"
     fit-margin-right="0"
     fit-margin-bottom="0"
     units="px"
     inkscape:window-width="1920"
     inkscape:window-height="1178"
     inkscape:window-x="-8"
     inkscape:window-y="-8"
     inkscape:window-maximized="1">
    <inkscape:grid
       originy="-1.6023925e-007"
       originx="0"
       id="grid23"
       type="xygrid" />
    <sodipodi:guide
       id="guide350"
       position="26.4583333328,0"
       orientation="1,0"
       inkscape:locked="false" />
    <sodipodi:guide
       id="guide352"
       position="0,52.9166666656"
       orientation="0,1"
       inkscape:locked="false" />
  </sodipodi:namedview>
  <defs
     id="defs2" />
  <metadata
     id="metadata5">
    <rdf:RDF>
      <cc:Work
         rdf:about="">
        <dc:format>image/svg+xml</dc:format>
        <dc:type
           rdf:resource="http://purl.org/dc/dcmitype/StillImage" />
        <dc:title></dc:title>
      </cc:Work>
    </rdf:RDF>
  </metadata>
  <g
     transform="translate(-51.247666,-50.62626)"
     id="layer1"
     inkscape:groupmode="layer"
     inkscape:label="Calque 1">
    <g
       id="g107"
       transform="translate(24.786129,73.189315)">
      <g
         inkscape:label="Calque 1"
         id="layer1-8"
         transform="translate(-72.445977,-88.41006)">
        <g
           transform="translate(90.098513,-33.584874)"
           id="g949">
          <g
             inkscape:label="Calque 1"
             id="layer1-6"
             transform="translate(-89.897093,33.690368)">
            <g
               transform="translate(10.842793,-36.169005)"
               id="g858">
              <g
                 inkscape:label="Calque 1"
                 id="layer1-07"
                 transform="translate(-10.938001,36.004736)">
                <g
                   id="g784"
                   transform="translate(5.7796696,-40.33357)">
                  <g
                     transform="translate(-3.1304918,40.367138)"
                     id="layer1-5"
                     inkscape:label="Calque 1">
                    <g
                       transform="translate(3.0227785,-38.420563)"
                       id="g740">
                      <g
                         transform="translate(61.283159,23.208297)"
                         id="layer1-3"
                         inkscape:label="Calque 1">
                        <g
                           transform="matrix(0.26458333,0,0,0.26458333,52.917332,114.51675)"
                           id="g4180">
                          <rect
                             style="fill:#d40000;fill-opacity:1;stroke:none"
                             id="rect2985-3"
                             width="15.335351"
                             height="63.726902"
                             x="13.049896"
                             y="0.96220398" />
                          <path
                             style="fill:#000407;fill-opacity:1;fill-rule:evenodd;stroke:none"
                             d="m 12.0625,0 v 64.75 c -1.70454,1.6489 -2.94669,3.77114 -3.5,6.15625 H 0.125 L 0,76.5625 h 8.5625 c 1.28732,5.53295 6.23327,9.65624 12.15625,9.65625 5.92495,0 10.87095,-4.12052 12.15625,-9.65625 l 8.3125,-0.0312 v -5.65625 l -8.3125,0.0312 c -0.58668,-2.52896 -1.94655,-4.75116 -3.8125,-6.4375 V 0 Z m 2.25,1.9375 h 12.34375 l 0.0332,61.58662 c -3.65022,-2.62034 -7.99699,-2.68668 -12.34375,0 z m 6.40625,64.28125 c 4.14,0 7.5,3.36 7.5,7.5 0,4.14 -3.36,7.5 -7.5,7.5 -4.14,0 -7.5,-3.36 -7.5,-7.5 0,-4.14 3.36,-7.5 7.5,-7.5 z"
                             id="path2520-0"
                             inkscape:connector-curvature="0"
                             sodipodi:nodetypes="ccccccsccccccccccccsssss" />
                        </g>
                      </g>
                      <g
                         transform="translate(104.5839,87.848163)"
                         id="layer1-81"
                         inkscape:label="Calque 1">
                        <g
                           id="g4353"
                           transform="translate(0,-4.2333335)">
                          <g
                             transform="translate(3.8653315,-130.46418)"
                             inkscape:label="Calque 1"
                             id="layer1-7">
                            <g
                               id="g4092"
                               transform="translate(-44.563892,-39.967584)">
                              <g
                                 transform="matrix(1.6773675,0,0,-1.6773675,23.235929,229.84247)"
                                 id="g40">
                                <path
                                   inkscape:connector-curvature="0"
                                   id="path42-7"
                                   style="fill:#231f20;fill-opacity:1;fill-rule:nonzero;stroke:none;stroke-width:1"
                                   d="m 18.586005,5.4393955 1.445677,0.018419 0.002,2.0427444 -1.47475,-0.020093 0.0271,-2.0410709 m -0.420367,-0.4009152 -0.0081,2.806052 2.23966,0.028628 0.03691,-2.8065961 -2.268447,-0.028084 m 0.986747,-1.6891873 -0.01896,1.4168899 0.340548,0.00447 0.01802,-1.4172195 z" />
                                <path
                                   transform="matrix(0.15773725,0,0,-0.15773725,15.390826,10.499782)"
                                   inkscape:connector-curvature="0"
                                   id="path4452"
                                   d="m 20.300474,31.466247 c -0.02862,-0.335731 -0.07753,-3.23895 -0.108685,-6.451597 l -0.05665,-5.841177 4.619781,-0.05983 c 2.540879,-0.03291 4.626687,-0.0494 4.635128,-0.03665 0.0084,0.01275 -0.0025,2.916795 -0.02434,6.453434 l -0.03968,6.430252 h -2.494095 c -1.371752,0 -3.390794,0.0261 -4.48676,0.05799 l -1.992666,0.05799 z"
                                   style="fill:#d40000;fill-opacity:1;stroke-width:0.08838835" />
                                <path
                                   transform="matrix(0.15773725,0,0,-0.15773725,15.390826,10.499782)"
                                   inkscape:connector-curvature="0"
                                   id="path4454"
                                   d="m 29.332891,31.655402 c -4e-6,-0.166504 0.0087,-1.717773 0.01938,-3.447266 0.03072,-4.98231 0.03532,-5.76353 0.03532,-5.99414 l -2e-6,-0.216797 h 0.01953 0.01953 v 1.252606 c 0,0.688933 -0.0023,2.930144 -0.0052,4.980469 l -0.0052,3.727862 h -0.04167 -0.04167 z"
                                   style="fill:#d40000;fill-opacity:1;stroke-width:0.0078125" />
                                <path
                                   transform="matrix(0.15773725,0,0,-0.15773725,15.390826,10.499782)"
                                   inkscape:connector-curvature="0"
                                   id="path4456"
                                   d="m 20.576082,32.07207 c 0.129025,-0.0042 1.941625,-0.05628 2.072266,-0.05956 1.310329,-0.03286 3.051276,-0.05077 4.944336,-0.05085 0.870039,-3.9e-5 1.041992,8.2e-4 1.041992,0.0052 0,0.0043 -0.03297,0.0057 -0.178711,0.0079 -0.487834,0.0073 -7.8442,0.1 -7.87793,0.0993 l -0.03906,-8.08e-4 z"
                                   style="fill:#d40000;fill-opacity:1;stroke-width:0.00390625" />
                                <path
                                   transform="matrix(0.15773725,0,0,-0.15773725,15.390826,10.499782)"
                                   inkscape:connector-curvature="0"
                                   id="path4458"
                                   d="m 20.257177,31.969366 c -0.0014,-0.06069 -0.0138,-0.983105 -0.02762,-2.049805 -0.01382,-1.066699 -0.02624,-1.992627 -0.02762,-2.057617 l -0.0025,-0.118164 h 0.01133 0.01133 l 0.0048,0.360352 c 0.01992,1.499613 0.04946,2.945259 0.06702,3.279249 0.0028,0.05313 0.04653,0.588853 0.05581,0.683641 l 0.0012,0.0127 h -0.04565 -0.04564 z"
                                   style="fill:#d40000;fill-opacity:1;stroke-width:0.00390625" />
                                <path
                                   transform="matrix(0.15773725,0,0,-0.15773725,15.390826,10.499782)"
                                   inkscape:connector-curvature="0"
                                   id="path4460"
                                   d="m 29.390221,21.149954 c 0.0038,-1.148081 0.0041,-2.06701 6.59e-4,-2.072561 -0.0085,-0.01373 -2.070322,0.0013 -4.467218,0.03253 -0.243847,0.0032 -0.46665,0.0058 -0.495117,0.0058 l -0.05176,3.7e-5 v -0.01512 -0.01512 l 0.153321,-0.0026 c 0.08433,-0.0014 1.187793,-0.01656 2.452148,-0.03358 1.264356,-0.01702 2.332668,-0.03145 2.374027,-0.03205 l 0.0752,-0.0011 -4e-6,1.406597 c -2e-6,0.773628 -0.0012,1.443794 -0.0026,1.489258 l -0.0026,0.08266 h -0.01945 -0.01945 z"
                                   style="fill:#d40000;fill-opacity:1;stroke-width:0.00390625" />
                              </g>
                            </g>
                          </g>
                        </g>
                      </g>
                    </g>
                  </g>
                </g>
              </g>
            </g>
          </g>
        </g>
      </g>
    </g>
  </g>
</svg>
