<?xml version="1.0" encoding="UTF-8" standalone="no"?>
<!-- Created with Inkscape (http://www.inkscape.org/) -->

<svg
   xmlns:dc="http://purl.org/dc/elements/1.1/"
   xmlns:cc="http://creativecommons.org/ns#"
   xmlns:rdf="http://www.w3.org/1999/02/22-rdf-syntax-ns#"
   xmlns:svg="http://www.w3.org/2000/svg"
   xmlns="http://www.w3.org/2000/svg"
   xmlns:sodipodi="http://sodipodi.sourceforge.net/DTD/sodipodi-0.dtd"
   xmlns:inkscape="http://www.inkscape.org/namespaces/inkscape"
   width="200"
   height="400"
   viewBox="0 0 52.916666 105.83333"
   version="1.1"
   id="svg8"
   inkscape:version="0.92.3 (2405546, 2018-03-11)"
   sodipodi:docname="BCNSPP_T.svg">
  <sodipodi:namedview
     id="base"
     pagecolor="#ffffff"
     bordercolor="#666666"
     borderopacity="1.0"
     inkscape:pageopacity="0.0"
     inkscape:pageshadow="2"
     inkscape:zoom="5.6"
     inkscape:cx="46.585207"
     inkscape:cy="248.02853"
     inkscape:document-units="mm"
     inkscape:current-layer="layer1"
     showgrid="false"
     units="px"
     inkscape:window-width="1920"
     inkscape:window-height="1178"
     inkscape:window-x="-8"
     inkscape:window-y="-8"
     inkscape:window-maximized="1">
    <sodipodi:guide
       id="guide11"
       position="26.4583333328,0"
       orientation="1,0"
       inkscape:locked="false" />
    <sodipodi:guide
       id="guide13"
       position="0,52.9166666656"
       orientation="0,1"
       inkscape:locked="false" />
  </sodipodi:namedview>
  <defs
     id="defs2" />
  <metadata
     id="metadata5">
    <rdf:RDF>
      <cc:Work
         rdf:about="">
        <dc:format>image/svg+xml</dc:format>
        <dc:type
           rdf:resource="http://purl.org/dc/dcmitype/StillImage" />
        <dc:title></dc:title>
      </cc:Work>
    </rdf:RDF>
  </metadata>
  <g
     transform="translate(0,-191.16667)"
     id="layer1"
     inkscape:groupmode="layer"
     inkscape:label="Calque 1">
    <g
       id="g1568"
       transform="matrix(0.26458333,0,0,0.26458333,20.991428,224.49104)">
      <rect
         y="0.96220398"
         x="13.049896"
         height="63.726902"
         width="15.335351"
         id="rect2985"
         style="fill:#ffd400;fill-opacity:1;stroke:none" />
      <path
         sodipodi:nodetypes="ccccccsccccccccccccsssss"
         inkscape:connector-curvature="0"
         id="path2520"
         d="m 12.0625,0 v 64.75 c -1.70454,1.6489 -2.94669,3.77114 -3.5,6.15625 H 0.125 L 0,76.5625 h 8.5625 c 1.28732,5.53295 6.23327,9.65624 12.15625,9.65625 5.92495,0 10.87095,-4.12052 12.15625,-9.65625 l 8.3125,-0.0312 v -5.65625 l -8.3125,0.0312 c -0.58668,-2.52896 -1.94655,-4.75116 -3.8125,-6.4375 V 0 Z m 2.25,1.9375 h 12.34375 l 0.0332,61.58662 c -3.65022,-2.62034 -7.99699,-2.68668 -12.34375,0 z m 6.40625,64.28125 c 4.14,0 7.5,3.36 7.5,7.5 0,4.14 -3.36,7.5 -7.5,7.5 -4.14,0 -7.5,-3.36 -7.5,-7.5 0,-4.14 3.36,-7.5 7.5,-7.5 z"
         style="fill:#000407;fill-opacity:1;fill-rule:evenodd;stroke:none" />
    </g>
    <g
       transform="matrix(2.0544825,-0.67712135,-0.67712135,-2.0544825,23.47849,219.80886)"
       id="g56">
      <path
         id="path58"
         style="fill:#231f20;fill-opacity:1;fill-rule:nonzero;stroke:none"
         d="M 0,0 1.436,0.715 0.721,2.15 1.078,2.33 1.82,0.885 3.256,1.602 3.436,1.242 1.973,0.535 2.689,-0.9 2.357,-1.088 1.615,0.357 0.18,-0.359 0,0 m 0.555,-2.277 0.449,1.343 0.322,-0.107 -0.449,-1.344 z"
         inkscape:connector-curvature="0" />
    </g>
  </g>
</svg>
