<?xml version="1.0" encoding="UTF-8" standalone="no"?>
<!-- Created with Inkscape (http://www.inkscape.org/) -->

<svg
   xmlns:dc="http://purl.org/dc/elements/1.1/"
   xmlns:cc="http://creativecommons.org/ns#"
   xmlns:rdf="http://www.w3.org/1999/02/22-rdf-syntax-ns#"
   xmlns:svg="http://www.w3.org/2000/svg"
   xmlns="http://www.w3.org/2000/svg"
   xmlns:sodipodi="http://sodipodi.sourceforge.net/DTD/sodipodi-0.dtd"
   xmlns:inkscape="http://www.inkscape.org/namespaces/inkscape"
   width="200"
   height="400"
   viewBox="0 0 52.916668 105.83333"
   version="1.1"
   id="svg8"
   inkscape:version="0.92.3 (2405546, 2018-03-11)"
   sodipodi:docname="BCNCAR_S_T.svg">
  <sodipodi:namedview
     id="base"
     pagecolor="#ffffff"
     bordercolor="#666666"
     borderopacity="1.0"
     inkscape:pageopacity="0.0"
     inkscape:pageshadow="2"
     inkscape:zoom="2.0000001"
     inkscape:cx="111.41109"
     inkscape:cy="163.37506"
     inkscape:document-units="mm"
     inkscape:current-layer="g858"
     showgrid="true"
     fit-margin-top="0"
     fit-margin-left="0"
     fit-margin-right="0"
     fit-margin-bottom="0"
     units="px"
     inkscape:window-width="1920"
     inkscape:window-height="1138"
     inkscape:window-x="-8"
     inkscape:window-y="-8"
     inkscape:window-maximized="1">
    <inkscape:grid
       originy="-1.6023925e-007"
       originx="0"
       id="grid23"
       type="xygrid" />
    <sodipodi:guide
       id="guide350"
       position="26.4583333328,0"
       orientation="1,0"
       inkscape:locked="false" />
    <sodipodi:guide
       id="guide352"
       position="0,52.9166666656"
       orientation="0,1"
       inkscape:locked="false" />
  </sodipodi:namedview>
  <defs
     id="defs2" />
  <metadata
     id="metadata5">
    <rdf:RDF>
      <cc:Work
         rdf:about="">
        <dc:format>image/svg+xml</dc:format>
        <dc:type
           rdf:resource="http://purl.org/dc/dcmitype/StillImage" />
        <dc:title></dc:title>
      </cc:Work>
    </rdf:RDF>
  </metadata>
  <g
     transform="translate(-51.247666,-50.62626)"
     id="layer1"
     inkscape:groupmode="layer"
     inkscape:label="Calque 1">
    <g
       id="g107"
       transform="translate(24.786129,73.189315)">
      <g
         inkscape:label="Calque 1"
         id="layer1-8"
         transform="translate(-72.445977,-88.41006)">
        <g
           transform="translate(90.098513,-33.584874)"
           id="g949">
          <g
             inkscape:label="Calque 1"
             id="layer1-6"
             transform="translate(-89.897093,33.690368)">
            <g
               transform="translate(10.842793,-36.169005)"
               id="g858">
              <g
                 inkscape:label="Calque 1"
                 id="layer1-07"
                 transform="translate(-10.938001,36.004736)">
                <g
                   id="g784"
                   transform="translate(5.7796696,-40.33357)">
                  <g
                     transform="translate(98.858945,-69.818015)"
                     inkscape:label="Calque 1"
                     id="layer1-7">
                    <g
                       id="g3851"
                       transform="matrix(0.26458333,0,0,0.26458333,9.1270829,201.5035)">
                      <path
                         inkscape:connector-curvature="0"
                         id="path3750-8"
                         d="M 69.28874,4.787444 40.25672,69.603125 11.89986,103.02371 h 21.26765 l 2.36307,-6.076475 6.07647,-3.7134 5.73889,0.67517 5.06372,5.06372 1.35033,4.388565 L 68.276,103.02371 66.25051,75.679595 81.44168,7.825679 Z"
                         style="fill:#000000;fill-opacity:1;stroke:none;stroke-width:1px;stroke-linecap:butt;stroke-linejoin:miter;stroke-opacity:1" />
                      <path
                         inkscape:connector-curvature="0"
                         id="path2983-4"
                         d="M 48.52525,53.210295 69.83967,59.856725 81.52822,8.518781 69.61048,3.476661 Z"
                         style="fill:#ffd400;fill-opacity:1;stroke:none;stroke-width:1px;stroke-linecap:butt;stroke-linejoin:miter;stroke-opacity:1" />
                      <path
                         sodipodi:nodetypes="ccccccsccccccccccccsccccsssss"
                         style="fill:#000407;fill-opacity:1;fill-rule:evenodd;stroke:none"
                         id="path27763-7"
                         d="M 68.15625,0 37.6875,68.062495 7.90625,100.65625 H 0.125 L 0,106.3125 h 31.0625 c 1.28732,5.53295 6.23327,9.65624 12.15625,9.65625 5.92495,0 10.87095,-4.12052 12.15625,-9.65625 H 79.5 v -5.65625 H 71.71875 L 69.25,78.312495 85.875,5.6875 Z m 4.25,8.5 4.96875,1.78125 -15.21875,68.031245 2.46875,22.343755 h -9.25 c -1.28251,-5.539565 -6.22858,-9.687505 -12.15625,-9.687505 -5.92576,0 -10.87178,4.15063 -12.15625,9.687505 H 17.46875 l 26.25,-28.375005 z m -21.7,94.98125 c 0,4.14 -3.36,7.5 -7.5,7.5 -4.14,0 -7.5,-3.36 -7.5,-7.5 0,-4.140005 3.36,-7.500005 7.5,-7.500005 4.14,0 7.5,3.36 7.5,7.500005 z"
                         inkscape:connector-curvature="0" />
                    </g>
                  </g>
                  <g
                     transform="matrix(2.0748557,0,0,-2.0748557,131.47324,122.91565)"
                     id="g20">
                    <path
                       inkscape:connector-curvature="0"
                       id="path22"
                       style="fill:#231f20;fill-opacity:1;fill-rule:nonzero;stroke:none"
                       d="M 0,0 -0.409,2.887 2.064,2.061 0,0 m -0.944,-2.732 -0.382,2.877 2.473,-0.827 -2.091,-2.05 m -0.701,-1.559 0.45,1.344 0.322,-0.108 -0.449,-1.345 z" />
                  </g>
                </g>
              </g>
            </g>
          </g>
        </g>
      </g>
    </g>
  </g>
</svg>
