<?xml version="1.0" encoding="UTF-8" standalone="no"?>
<!-- Created with Inkscape (http://www.inkscape.org/) -->

<svg
   xmlns:dc="http://purl.org/dc/elements/1.1/"
   xmlns:cc="http://creativecommons.org/ns#"
   xmlns:rdf="http://www.w3.org/1999/02/22-rdf-syntax-ns#"
   xmlns:svg="http://www.w3.org/2000/svg"
   xmlns="http://www.w3.org/2000/svg"
   xmlns:sodipodi="http://sodipodi.sourceforge.net/DTD/sodipodi-0.dtd"
   xmlns:inkscape="http://www.inkscape.org/namespaces/inkscape"
   width="200"
   height="400"
   viewBox="0 0 52.916665 105.83334"
   version="1.1"
   id="svg8"
   sodipodi:docname="BOYISD_T.svg"
   inkscape:version="0.92.3 (2405546, 2018-03-11)">
  <sodipodi:namedview
     id="base"
     pagecolor="#ffffff"
     bordercolor="#666666"
     borderopacity="1.0"
     inkscape:pageopacity="0.0"
     inkscape:pageshadow="2"
     inkscape:zoom="0.49497475"
     inkscape:cx="-105.23261"
     inkscape:cy="-54.978606"
     inkscape:document-units="mm"
     inkscape:current-layer="g10"
     showgrid="true"
     units="px"
     inkscape:window-width="1920"
     inkscape:window-height="1178"
     inkscape:window-x="-8"
     inkscape:window-y="-8"
     inkscape:window-maximized="1">
    <sodipodi:guide
       id="guide11"
       position="26.4583333328,0"
       orientation="1,0"
       inkscape:locked="false" />
    <sodipodi:guide
       id="guide13"
       position="0,52.9166666656"
       orientation="0,1"
       inkscape:locked="false" />
    <inkscape:grid
       type="xygrid"
       id="grid82" />
  </sodipodi:namedview>
  <defs
     id="defs2">
    <clipPath
       clipPathUnits="userSpaceOnUse"
       id="clipPath12">
      <path
         inkscape:connector-curvature="0"
         d="M 0,0 H 113.386 V 34.0157 H 0 Z"
         id="path14" />
    </clipPath>
  </defs>
  <metadata
     id="metadata5">
    <rdf:RDF>
      <cc:Work
         rdf:about="">
        <dc:format>image/svg+xml</dc:format>
        <dc:type
           rdf:resource="http://purl.org/dc/dcmitype/StillImage" />
        <dc:title></dc:title>
      </cc:Work>
    </rdf:RDF>
  </metadata>
  <g
     transform="translate(0,-191.16665)"
     id="layer1"
     inkscape:groupmode="layer"
     inkscape:label="Calque 1">
    <g
       id="g10"
       transform="matrix(2.1631902,0,0,-2.1631902,-142.25598,263.5903)"
       clip-path="url(#clipPath12)">
      <g
         id="g32"
         transform="translate(83.8027,25.9355)">
        <path
           inkscape:connector-curvature="0"
           d="M 0,0 -0.467,0.328 -0.742,0.834 -0.744,1.416 -0.477,1.93 0.016,2.244 0.6,2.287 1.133,2.033 1.492,1.566 1.582,0.996 1.381,0.453 0.945,0.066 0.395,-0.074 0,0 m -0.883,-2.814 -0.482,0.296 -0.301,0.493 -0.031,0.582 0.244,0.529 0.484,0.33 0.592,0.064 0.541,-0.234 0.369,-0.465 0.098,-0.574 -0.195,-0.549 -0.426,-0.383 -0.553,-0.136 -0.34,0.047 m -0.781,-1.622 0.469,1.399 0.347,-0.117 -0.494,-1.389 z"
           style="fill:#231f20;fill-opacity:1;fill-rule:nonzero;stroke:none"
           id="path34" />
      </g>
    </g>
    <g
       inkscape:label="Calque 1"
       id="layer1-5"
       transform="translate(0.15355185,0.02638222)">
      <g
         transform="matrix(0.26458333,0,0,0.26458333,15.05999,216.72217)"
         id="g35">
        <path
           style="fill:#000000;fill-opacity:1;stroke:none;stroke-width:1px;stroke-linecap:butt;stroke-linejoin:miter;stroke-opacity:1"
           d="M 69.28874,4.787444 40.25672,69.603125 11.89986,103.02371 h 21.26765 l 2.36307,-6.076475 6.07647,-3.7134 5.73889,0.67517 5.06372,5.06372 1.35033,4.388565 L 68.276,103.02371 66.25051,75.679595 81.44168,7.825679 Z"
           id="path3750"
           inkscape:connector-curvature="0" />
        <path
           style="fill:#d40000;fill-opacity:1;stroke:none"
           d="m 43.25394,67.649095 23.14791,6.18806 7.10481,-32.315411 -17.18905,-5.271307 z"
           id="path2983"
           inkscape:connector-curvature="0"
           sodipodi:nodetypes="ccccc" />
        <path
           inkscape:connector-curvature="0"
           d="M 68.15625,0 37.6875,68.062495 7.90625,100.65625 H 0.125 L 0,106.3125 h 31.0625 c 1.28732,5.53295 6.23327,9.65624 12.15625,9.65625 5.92495,0 10.87095,-4.12052 12.15625,-9.65625 H 79.5 v -5.65625 H 71.71875 L 69.25,78.312495 85.875,5.6875 Z m 4.25,8.5 4.96875,1.78125 -15.21875,68.031245 2.46875,22.343755 h -9.25 c -1.28251,-5.539565 -6.22858,-9.687505 -12.15625,-9.687505 -5.92576,0 -10.87178,4.15063 -12.15625,9.687505 H 17.46875 l 26.25,-28.375005 z m -21.7,94.98125 c 0,4.14 -3.36,7.5 -7.5,7.5 -4.14,0 -7.5,-3.36 -7.5,-7.5 0,-4.140005 3.36,-7.500005 7.5,-7.500005 4.14,0 7.5,3.36 7.5,7.500005 z"
           id="path27763"
           style="fill:#000407;fill-opacity:1;fill-rule:evenodd;stroke:none"
           sodipodi:nodetypes="ccccccsccccccccccccsccccsssss" />
      </g>
    </g>
  </g>
</svg>
