<?xml version="1.0" encoding="UTF-8" standalone="no"?>
<!-- Created with Inkscape (http://www.inkscape.org/) -->

<svg
   width="200"
   height="400"
   viewBox="0 0 52.91666 105.83334"
   version="1.1"
   id="svg8"
   inkscape:version="1.1.1 (3bf5ae0d25, 2021-09-20)"
   sodipodi:docname="BOYLAT_B_T_IALAB.svg"
   xmlns:inkscape="http://www.inkscape.org/namespaces/inkscape"
   xmlns:sodipodi="http://sodipodi.sourceforge.net/DTD/sodipodi-0.dtd"
   xmlns="http://www.w3.org/2000/svg"
   xmlns:svg="http://www.w3.org/2000/svg"
   xmlns:rdf="http://www.w3.org/1999/02/22-rdf-syntax-ns#"
   xmlns:cc="http://creativecommons.org/ns#"
   xmlns:dc="http://purl.org/dc/elements/1.1/">
  <sodipodi:namedview
     id="base"
     pagecolor="#ffffff"
     bordercolor="#666666"
     borderopacity="1.0"
     inkscape:pageopacity="0.0"
     inkscape:pageshadow="2"
     inkscape:zoom="6.6667608"
     inkscape:cx="80.323866"
     inkscape:cy="177.3725"
     inkscape:document-units="mm"
     inkscape:current-layer="layer1"
     showgrid="true"
     inkscape:window-width="2560"
     inkscape:window-height="1377"
     inkscape:window-x="-8"
     inkscape:window-y="-8"
     inkscape:window-maximized="1"
     units="px"
     fit-margin-top="0"
     fit-margin-left="0"
     fit-margin-right="0"
     fit-margin-bottom="0"
     showguides="true"
     inkscape:pagecheckerboard="0">
    <inkscape:grid
       type="xygrid"
       id="grid85" />
    <sodipodi:guide
       id="guide72"
       position="26.4583333328,0"
       orientation="1,0"
       inkscape:locked="false" />
    <sodipodi:guide
       id="guide74"
       position="0,52.9166666656"
       orientation="0,1"
       inkscape:locked="false" />
  </sodipodi:namedview>
  <defs
     id="defs2" />
  <metadata
     id="metadata5">
    <rdf:RDF>
      <cc:Work
         rdf:about="">
        <dc:format>image/svg+xml</dc:format>
        <dc:type
           rdf:resource="http://purl.org/dc/dcmitype/StillImage" />
      </cc:Work>
    </rdf:RDF>
  </metadata>
  <g
     id="layer1"
     inkscape:groupmode="layer"
     inkscape:label="Calque 1"
     transform="translate(-8.3994785,-154.75491)">
    <g
       id="g40"
       transform="matrix(1.6773675,0,0,-1.6773675,37.54908,192.81951)" />
    <g
       id="g872">
      <path
         inkscape:connector-curvature="0"
         id="path2982"
         d="m 26.92031,207.67159 3.502763,-11.73425 14.53646,4.72873 -2.276796,6.65525 -4.903866,-0.17514 -1.050827,-1.75138 -1.05083,-0.35028 h -1.576242 l -1.401104,1.22597 -0.525415,1.22596 z"
         style="fill:#00d400;fill-opacity:1;stroke:none;stroke-width:0.264583px;stroke-linecap:butt;stroke-linejoin:miter;stroke-opacity:1" />
      <path
         style="fill:#000407;fill-opacity:1;fill-rule:evenodd;stroke:none;stroke-width:0.264583"
         id="path90440-6"
         d="m 29.990445,194.69771 -4.026628,12.10469 h -2.108398 v 1.49655 h 7.854818 c 0.340603,1.46392 1.649219,2.55488 3.216341,2.55488 1.567643,0 2.876272,-1.09022 3.216341,-2.55488 h 7.896159 v -0.0165 -1.48001 h -2.033985 l 2.38125,-6.92878 z m 1.331185,2.28203 12.476757,4.22507 -1.90996,5.59759 h -3.745508 c -0.340069,-1.46466 -1.648698,-2.55489 -3.216341,-2.55489 -1.567122,1e-5 -2.875738,1.09096 -3.216341,2.55489 h -3.629753 z m 3.604948,8.58242 c 1.095375,0 1.984375,0.889 1.984375,1.98438 0,1.09537 -0.889,1.98437 -1.984375,1.98437 -1.095375,0 -1.984375,-0.889 -1.984375,-1.98437 0,-1.09538 0.889,-1.98438 1.984375,-1.98438 z"
         inkscape:connector-curvature="0" />
      <path
         inkscape:connector-curvature="0"
         id="path42"
         style="fill:#231f20;fill-opacity:1;fill-rule:nonzero;stroke:none;stroke-width:2.60665"
         d="m 38.0576,190.99247 3.573714,1.19645 1.759487,-5.02562 -3.6467,-1.2173 -1.686501,5.04647 m -1.378917,0.6256 2.390296,-6.91283 5.53652,1.85332 -2.319917,6.9389 -5.606899,-1.87939 m 0.977493,5.00476 1.170385,-3.50334 0.841947,0.28152 -1.172991,3.50334 z" />
      <path
         style="fill:#00d400;fill-opacity:1;stroke-width:0.146845"
         d="m 39.726041,191.46666 c -0.799082,-0.27471 -1.475419,-0.52202 -1.502972,-0.54957 -0.06798,-0.068 1.422082,-4.54988 1.564907,-4.70705 0.06241,-0.0687 0.88136,0.12788 1.819896,0.43677 1.342088,0.44172 1.688025,0.60946 1.62023,0.78566 -0.04741,0.12322 -0.426574,1.19872 -0.842588,2.38999 -0.540291,1.54716 -0.8207,2.16278 -0.981493,2.15482 -0.123807,-0.006 -0.878898,-0.2359 -1.67798,-0.51062 z"
         id="path4094"
         inkscape:connector-curvature="0" />
    </g>
    <g
       transform="translate(-33.998026,26.641629)"
       inkscape:label="Calque 1"
       id="layer1-83">
      <g
         transform="translate(-0.41341149,-7.9045445)"
         id="g3973-5" />
    </g>
  </g>
</svg>
