<?xml version="1.0" encoding="UTF-8" standalone="no"?>
<!-- Created with Inkscape (http://www.inkscape.org/) -->

<svg
   width="200"
   height="400"
   viewBox="0 0 52.91666 105.83334"
   version="1.1"
   id="svg8"
   inkscape:version="1.1.1 (3bf5ae0d25, 2021-09-20)"
   sodipodi:docname="BOYLAT_T_T.svg"
   xmlns:inkscape="http://www.inkscape.org/namespaces/inkscape"
   xmlns:sodipodi="http://sodipodi.sourceforge.net/DTD/sodipodi-0.dtd"
   xmlns="http://www.w3.org/2000/svg"
   xmlns:svg="http://www.w3.org/2000/svg"
   xmlns:rdf="http://www.w3.org/1999/02/22-rdf-syntax-ns#"
   xmlns:cc="http://creativecommons.org/ns#"
   xmlns:dc="http://purl.org/dc/elements/1.1/">
  <sodipodi:namedview
     id="base"
     pagecolor="#ffffff"
     bordercolor="#666666"
     borderopacity="1.0"
     inkscape:pageopacity="0.0"
     inkscape:pageshadow="2"
     inkscape:zoom="6.6667606"
     inkscape:cx="133.72312"
     inkscape:cy="165.67266"
     inkscape:document-units="mm"
     inkscape:current-layer="g52"
     showgrid="true"
     inkscape:window-width="2560"
     inkscape:window-height="1377"
     inkscape:window-x="-8"
     inkscape:window-y="-8"
     inkscape:window-maximized="1"
     units="px"
     fit-margin-top="0"
     fit-margin-left="0"
     fit-margin-right="0"
     fit-margin-bottom="0"
     showguides="true"
     inkscape:pagecheckerboard="0">
    <inkscape:grid
       type="xygrid"
       id="grid85" />
    <sodipodi:guide
       id="guide72"
       position="26.4583333328,0"
       orientation="1,0"
       inkscape:locked="false" />
    <sodipodi:guide
       id="guide74"
       position="0,52.9166666656"
       orientation="0,1"
       inkscape:locked="false" />
  </sodipodi:namedview>
  <defs
     id="defs2" />
  <metadata
     id="metadata5">
    <rdf:RDF>
      <cc:Work
         rdf:about="">
        <dc:format>image/svg+xml</dc:format>
        <dc:type
           rdf:resource="http://purl.org/dc/dcmitype/StillImage" />
      </cc:Work>
    </rdf:RDF>
  </metadata>
  <g
     id="layer1"
     inkscape:groupmode="layer"
     inkscape:label="Calque 1"
     transform="translate(-8.3994785,-154.75491)">
    <g
       id="g3973"
       transform="translate(-0.41341149,-7.9045445)">
      <g
         inkscape:transform-center-y="1.9377041"
         inkscape:transform-center-x="-1.1358955"
         id="g52"
         transform="matrix(1.6604915,0.09323923,0.09323923,-1.6604915,25.678105,225.89073)">
        <g
           id="g944">
          <path
             style="fill:#00d400;fill-opacity:1;fill-rule:evenodd;stroke:none;stroke-width:0.108649;stroke-opacity:1"
             d="M 0.79867856,6.6225252 C 1.0385726,7.064481 3.4644631,10.503181 4.32643,11.623115 6.0115785,13.81259 7.569475,15.180604 8.1037429,14.940033 8.5366995,14.745081 9.0510723,13.472696 9.4387242,11.637753 9.663094,10.575704 10.17259,7.5919501 10.193666,7.2166218 10.204005,7.0324886 10.101333,7.0108595 8.8956771,6.94316 7.5935788,6.8700452 7.1560452,6.700396 7.0730289,6.9603845 6.9488564,7.3492629 6.7262617,8.1151431 6.2125951,8.3080667 4.987219,8.768297 4.0064702,7.9837503 3.6087852,6.73625 3.5560344,6.5707767 2.8994397,6.6064619 1.8895997,6.5497578 0.98620615,6.4990308 0.74053765,6.5154168 0.79867697,6.6225251 Z"
             id="path2382"
             inkscape:connector-curvature="0"
             sodipodi:nodetypes="cssssssssscc" />
          <path
             inkscape:connector-curvature="0"
             d="M 7.5510883,15.586771 C 6.9248479,15.541184 6.3745134,15.166863 5.8054474,14.662172 5.1984434,14.123835 4.5653055,13.398221 3.9074591,12.548904 2.6038837,10.865915 1.2105821,8.7060527 -0.09107207,6.6976736 L -1.2277676,6.6338464 -1.177319,5.7354102 3.5382301,6.0001957 C 3.7920564,5.1328261 4.6144448,4.5219979 5.5552484,4.5748239 6.4963648,4.6276691 7.2452339,5.3262845 7.4000167,6.217041 l 4.7403683,0.2661791 -5.58e-4,0.00993 -0.04989,0.8885087 -1.226043,-0.068844 C 10.560182,9.100614 10.30834,11.005857 9.9333698,12.533735 c -0.197243,0.803696 -0.4225496,1.501951 -0.7527,2.054057 -0.3301504,0.552105 -0.8481212,1.006161 -1.5054871,1.00595 -0.042473,-3.6e-5 -0.082345,-0.0039 -0.1240934,-0.007 z M 7.672808,14.483202 c 0.1728142,5.6e-5 0.3228767,-0.08886 0.5490644,-0.467108 C 8.4480601,13.637844 8.668463,13.019909 8.8527745,12.2689 9.1952052,10.873606 9.4425164,9.0304641 9.7420888,7.249821 L 7.3495681,7.1154772 C 7.096038,7.9833064 6.2736663,8.5936941 5.3325499,8.540849 4.3917465,8.4880198 3.64291,7.7889649 3.4877815,6.8986319 L 1.2888465,6.7751582 c 1.1699785,1.8027324 2.3827427,3.6507328 3.498456,5.0911808 0.634206,0.818795 1.2382453,1.505957 1.7568804,1.965922 0.5186352,0.459964 0.9531965,0.650793 1.1286251,0.650941 z M 5.3768666,7.7516149 C 6.0344623,7.78854 6.5981314,7.2848072 6.6350564,6.6272115 6.6719814,5.9696158 6.1682487,5.4059467 5.5106529,5.3690217 4.8530572,5.3320967 4.2893882,5.8358294 4.2524631,6.4934251 4.2155381,7.1510209 4.7192709,7.7146899 5.3768666,7.7516149 Z"
             id="path90440"
             style="fill:#000407;fill-opacity:1;fill-rule:evenodd;stroke:none;stroke-width:0.15909" />
          <path
             inkscape:connector-curvature="0"
             id="path54"
             style="fill:#231f20;fill-opacity:1;fill-rule:nonzero;stroke:none;stroke-width:1.5804"
             d="m 7.9639068,19.194963 2.5065062,-0.83919 -0.434608,2.934794 -2.0718982,-2.095604 m -1.175814,-0.268667 3.6886422,3.682321 0.774394,-5.172634 -4.4630362,1.490313 m 1.1015354,-3.203461 0.7095974,2.125632 0.5136283,-0.169103 -0.7143384,-2.127212 z" />
          <path
             style="fill:#00d400;fill-opacity:1;stroke-width:0.0168739"
             d="m 9.2139114,18.784772 -1.2363538,0.413447 0.076557,0.07582 c 0.042106,0.0417 0.5011022,0.506063 1.0199915,1.031917 0.7175656,0.727196 0.9464859,0.949811 0.9561809,0.929843 0.01355,-0.02792 0.432925,-2.850998 0.424778,-2.859478 -0.0026,-0.0027 -0.5611585,0.181055 -1.2411536,0.408451 z"
             id="path59"
             inkscape:connector-curvature="0" />
        </g>
      </g>
    </g>
  </g>
</svg>
