<?xml version="1.0" encoding="UTF-8" standalone="no"?>
<!-- Created with Inkscape (http://www.inkscape.org/) -->

<svg
   width="200"
   height="400"
   viewBox="0 0 52.91666 105.83334"
   version="1.1"
   id="svg8"
   inkscape:version="1.1.1 (3bf5ae0d25, 2021-09-20)"
   sodipodi:docname="BOYLAT_T_IALAB.svg"
   xmlns:inkscape="http://www.inkscape.org/namespaces/inkscape"
   xmlns:sodipodi="http://sodipodi.sourceforge.net/DTD/sodipodi-0.dtd"
   xmlns="http://www.w3.org/2000/svg"
   xmlns:svg="http://www.w3.org/2000/svg"
   xmlns:rdf="http://www.w3.org/1999/02/22-rdf-syntax-ns#"
   xmlns:cc="http://creativecommons.org/ns#"
   xmlns:dc="http://purl.org/dc/elements/1.1/">
  <sodipodi:namedview
     id="base"
     pagecolor="#ffffff"
     bordercolor="#666666"
     borderopacity="1.0"
     inkscape:pageopacity="0.0"
     inkscape:pageshadow="2"
     inkscape:zoom="1.6666902"
     inkscape:cx="-118.49833"
     inkscape:cy="205.4971"
     inkscape:document-units="mm"
     inkscape:current-layer="g69"
     showgrid="true"
     inkscape:window-width="2560"
     inkscape:window-height="1377"
     inkscape:window-x="-8"
     inkscape:window-y="-8"
     inkscape:window-maximized="1"
     units="px"
     fit-margin-top="0"
     fit-margin-left="0"
     fit-margin-right="0"
     fit-margin-bottom="0"
     showguides="true"
     inkscape:pagecheckerboard="0">
    <inkscape:grid
       type="xygrid"
       id="grid85" />
    <sodipodi:guide
       id="guide72"
       position="26.4583333328,0"
       orientation="1,0"
       inkscape:locked="false" />
    <sodipodi:guide
       id="guide74"
       position="0,52.9166666656"
       orientation="0,1"
       inkscape:locked="false" />
  </sodipodi:namedview>
  <defs
     id="defs2" />
  <metadata
     id="metadata5">
    <rdf:RDF>
      <cc:Work
         rdf:about="">
        <dc:format>image/svg+xml</dc:format>
        <dc:type
           rdf:resource="http://purl.org/dc/dcmitype/StillImage" />
      </cc:Work>
    </rdf:RDF>
  </metadata>
  <g
     id="layer1"
     inkscape:groupmode="layer"
     inkscape:label="Calque 1"
     transform="translate(-8.3994785,-154.75491)">
    <g
       id="g3973"
       transform="translate(-0.41341149,-7.9045445)">
      <g
         inkscape:transform-center-y="1.9377041"
         inkscape:transform-center-x="-1.1358955"
         id="g52"
         transform="matrix(1.6604915,0.09323923,0.09323923,-1.6604915,25.678105,225.89073)">
        <g
           id="g69"
           transform="translate(7.9120729,18.00462)">
          <path
             style="fill:#d40000;fill-opacity:1;fill-rule:evenodd;stroke:none;stroke-width:0.108649;stroke-opacity:1"
             d="m -7.1133943,-11.382095 c 0.239894,0.441956 2.6657845,3.8806557 3.5277514,5.0005903 1.6851485,2.1894747 3.24304505,3.5574889 3.77731288,3.3169177 0.43295666,-0.1949523 0.94732942,-1.467337 1.33498132,-3.3022802 0.2243698,-1.0620485 0.7338662,-4.0458028 0.7549415,-4.4211308 0.010339,-0.184133 -0.092333,-0.205763 -1.29798856,-0.273462 -1.30209833,-0.07311 -1.73963195,-0.242764 -1.82264828,0.01722 -0.12417248,0.388879 -0.34676716,1.1547591 -0.86043376,1.3476827 -1.2253761,0.4602303 -2.2061249,-0.3243167 -2.6038099,-1.5718167 -0.052751,-0.165473 -0.7093455,-0.129788 -1.7191855,-0.186492 -0.9033935,-0.05073 -1.149062,-0.03434 -1.0909227,0.07277 z"
             id="path2382"
             inkscape:connector-curvature="0"
             sodipodi:nodetypes="cssssssssscc" />
          <path
             inkscape:connector-curvature="0"
             d="M -0.36098465,-2.4178492 C -0.987225,-2.463436 -1.5375595,-2.8377565 -2.1066255,-3.3424478 -2.7136295,-3.8807854 -3.3467674,-4.6063989 -4.0046138,-5.4557157 -5.3081892,-7.1387054 -6.7014908,-9.2985673 -8.003145,-11.306946 l -1.1366955,-0.06383 0.050449,-0.898436 4.7155491,0.264786 c 0.2538263,-0.86737 1.0762147,-1.478198 2.0170183,-1.425372 0.9411164,0.05284 1.68998551,0.75146 1.84476831,1.642217 l 4.74036779,0.266179 -5.574e-4,0.0099 -0.049891,0.888508 -1.2260428,-0.06884 c -0.3037124,1.7877993 -0.5555542,3.6930419 -0.9305243,5.2209201 -0.197243,0.8036955 -0.4225496,1.5019509 -0.7527,2.0540566 -0.33015036,0.5521056 -0.84812119,1.0061614 -1.50548715,1.0059501 -0.0424733,-3.62e-5 -0.0823448,-0.00393 -0.1240934,-0.00697 z m 0.12171974,-1.1035684 c 0.17281425,5.57e-5 0.32287672,-0.088858 0.54906444,-0.467108 0.22618771,-0.3782503 0.44659055,-0.996185 0.63090206,-1.7471942 C 1.2831323,-7.1310136 1.5304435,-8.9741559 1.8300159,-10.754799 l -2.39252069,-0.134344 c -0.25353015,0.867829 -1.07590181,1.4782171 -2.01701821,1.425372 -0.9408034,-0.052829 -1.6896399,-0.751884 -1.8447684,-1.642217 l -2.198935,-0.123474 c 1.1699785,1.8027326 2.3827427,3.6507333 3.498456,5.091181 0.634206,0.8187951 1.2382453,1.5059574 1.7568804,1.9659216 0.51863518,0.4599643 0.95319649,0.6507934 1.12862509,0.6509418 z M -2.5352063,-10.253005 c 0.6575957,0.03693 1.2212648,-0.466808 1.2581898,-1.124404 0.036925,-0.657595 -0.4668077,-1.221264 -1.1244035,-1.258189 -0.6575957,-0.03693 -1.2212647,0.466807 -1.2581898,1.124403 -0.036925,0.657596 0.4668078,1.221265 1.1244035,1.25819 z"
             id="path90440"
             style="fill:#000407;fill-opacity:1;fill-rule:evenodd;stroke:none;stroke-width:0.15909" />
        </g>
      </g>
    </g>
  </g>
</svg>
