<?xml version="1.0" encoding="UTF-8" standalone="no"?>
<!-- Created with Inkscape (http://www.inkscape.org/) -->

<svg
   xmlns:dc="http://purl.org/dc/elements/1.1/"
   xmlns:cc="http://creativecommons.org/ns#"
   xmlns:rdf="http://www.w3.org/1999/02/22-rdf-syntax-ns#"
   xmlns:svg="http://www.w3.org/2000/svg"
   xmlns="http://www.w3.org/2000/svg"
   xmlns:sodipodi="http://sodipodi.sourceforge.net/DTD/sodipodi-0.dtd"
   xmlns:inkscape="http://www.inkscape.org/namespaces/inkscape"
   width="200"
   height="400"
   viewBox="0 0 52.916666 105.83333"
   version="1.1"
   id="svg8"
   inkscape:version="0.92.3 (2405546, 2018-03-11)"
   sodipodi:docname="BOYSAW_T.svg">
  <sodipodi:namedview
     id="base"
     pagecolor="#ffffff"
     bordercolor="#666666"
     borderopacity="1.0"
     inkscape:pageopacity="0.0"
     inkscape:pageshadow="2"
     inkscape:zoom="1.4"
     inkscape:cx="-114.68717"
     inkscape:cy="299.74836"
     inkscape:document-units="mm"
     inkscape:current-layer="layer1-0"
     showgrid="true"
     units="px"
     inkscape:window-width="1920"
     inkscape:window-height="1178"
     inkscape:window-x="-8"
     inkscape:window-y="-8"
     inkscape:window-maximized="1">
    <sodipodi:guide
       id="guide11"
       position="26.4583333328,0"
       orientation="1,0"
       inkscape:locked="false" />
    <sodipodi:guide
       id="guide13"
       position="0,52.9166666656"
       orientation="0,1"
       inkscape:locked="false" />
    <inkscape:grid
       type="xygrid"
       id="grid1459" />
  </sodipodi:namedview>
  <defs
     id="defs2">
    <clipPath
       id="clipPath12"
       clipPathUnits="userSpaceOnUse">
      <path
         id="path14"
         d="M 0,0 H 113.386 V 34.0157 H 0 Z"
         inkscape:connector-curvature="0" />
    </clipPath>
  </defs>
  <metadata
     id="metadata5">
    <rdf:RDF>
      <cc:Work
         rdf:about="">
        <dc:format>image/svg+xml</dc:format>
        <dc:type
           rdf:resource="http://purl.org/dc/dcmitype/StillImage" />
        <dc:title />
      </cc:Work>
    </rdf:RDF>
  </metadata>
  <g
     transform="translate(0,-191.16667)"
     id="layer1"
     inkscape:groupmode="layer"
     inkscape:label="Calque 1">
    <g
       id="g1073"
       transform="matrix(0.26458333,0,0,0.26458333,14.898341,216.66592)">
      <path
         inkscape:connector-curvature="0"
         id="path3752"
         d="m 75.7028,5.800189 -34.43333,88.446396 6.07647,0.33758 3.71339,2.70065 2.70066,6.751645 15.19117,-0.67517 L 65.57535,77.367505 82.79201,8.163261 Z"
         style="fill:#d40000;fill-opacity:1;stroke:none;stroke-width:1px;stroke-linecap:butt;stroke-linejoin:miter;stroke-opacity:1" />
      <path
         inkscape:connector-curvature="0"
         id="path2982"
         d="m 69.96391,4.112281 -29.70719,65.828424 -29.3696,33.083005 21.60522,-0.33758 2.36307,-6.076475 5.73889,-3.03823 h 3.37582 L 76.04038,5.800189 Z"
         style="fill:#ffffff;fill-opacity:1;stroke:none;stroke-width:1px;stroke-linecap:butt;stroke-linejoin:miter;stroke-opacity:0" />
      <path
         sodipodi:nodetypes="ccccccsccccccccccccsccccsssss"
         style="fill:#000407;fill-opacity:1;fill-rule:evenodd;stroke:none"
         id="path27763"
         d="M 68.15625,0 37.6875,68.062495 7.90625,100.65625 H 0.125 L 0,106.3125 h 31.0625 c 1.28732,5.53295 6.23327,9.65624 12.15625,9.65625 5.92495,0 10.87095,-4.12052 12.15625,-9.65625 H 79.5 v -5.65625 H 71.71875 L 69.25,78.312495 85.875,5.6875 Z m 4.25,8.5 4.96875,1.78125 -15.21875,68.031245 2.46875,22.343755 h -9.25 c -1.28251,-5.539565 -6.22858,-9.687505 -12.15625,-9.687505 -5.92576,0 -10.87178,4.15063 -12.15625,9.687505 H 17.46875 l 26.25,-28.375005 z m -21.7,94.98125 c 0,4.14 -3.36,7.5 -7.5,7.5 -4.14,0 -7.5,-3.36 -7.5,-7.5 0,-4.140005 3.36,-7.500005 7.5,-7.500005 4.14,0 7.5,3.36 7.5,7.500005 z"
         inkscape:connector-curvature="0" />
    </g>
    <g
       inkscape:label="Calque 1"
       id="layer1-0"
       transform="translate(81.528696,-16.158386)">
      <g
         transform="matrix(2.1631902,0,0,-2.1631902,-45.201978,228.34813)"
         id="g36">
        <path
           id="path38"
           style="fill:#231f20;fill-opacity:1;fill-rule:nonzero;stroke:none"
           d="M 0,0 0.551,-0.133 1.096,0.035 1.469,0.469 1.539,1.033 1.287,1.557 0.797,1.871 0.223,1.859 -0.264,1.539 -0.504,1.023 -0.414,0.465 -0.049,0.031 0,0 M 0.08,-0.475 -0.406,-0.182 -0.748,0.283 -0.883,0.848 -0.787,1.42 -0.463,1.9 0.039,2.207 0.623,2.289 1.184,2.119 1.633,1.738 1.887,1.221 1.906,0.646 1.703,0.105 1.309,-0.311 0.777,-0.525 0.205,-0.512 0.08,-0.475 M -0.637,-2 l 0.449,1.346 0.323,-0.108 -0.449,-1.343 z"
           inkscape:connector-curvature="0" />
      </g>
    </g>
  </g>
</svg>
