<?xml version="1.0" encoding="UTF-8" standalone="no"?>
<!-- Created with Inkscape (http://www.inkscape.org/) -->

<svg
   xmlns:dc="http://purl.org/dc/elements/1.1/"
   xmlns:cc="http://creativecommons.org/ns#"
   xmlns:rdf="http://www.w3.org/1999/02/22-rdf-syntax-ns#"
   xmlns:svg="http://www.w3.org/2000/svg"
   xmlns="http://www.w3.org/2000/svg"
   xmlns:sodipodi="http://sodipodi.sourceforge.net/DTD/sodipodi-0.dtd"
   xmlns:inkscape="http://www.inkscape.org/namespaces/inkscape"
   width="200"
   height="400"
   viewBox="0 0 52.916666 105.83333"
   version="1.1"
   id="svg8"
   inkscape:version="0.92.3 (2405546, 2018-03-11)"
   sodipodi:docname="BOYSAW.svg">
  <sodipodi:namedview
     id="base"
     pagecolor="#ffffff"
     bordercolor="#666666"
     borderopacity="1.0"
     inkscape:pageopacity="0.0"
     inkscape:pageshadow="2"
     inkscape:zoom="1.979899"
     inkscape:cx="-31.747801"
     inkscape:cy="251.6185"
     inkscape:document-units="mm"
     inkscape:current-layer="layer1"
     showgrid="false"
     units="px"
     inkscape:window-width="1920"
     inkscape:window-height="1178"
     inkscape:window-x="-8"
     inkscape:window-y="-8"
     inkscape:window-maximized="1">
    <sodipodi:guide
       id="guide11"
       position="26.4583333328,0"
       orientation="1,0"
       inkscape:locked="false" />
    <sodipodi:guide
       id="guide13"
       position="0,52.9166666656"
       orientation="0,1"
       inkscape:locked="false" />
  </sodipodi:namedview>
  <defs
     id="defs2" />
  <metadata
     id="metadata5">
    <rdf:RDF>
      <cc:Work
         rdf:about="">
        <dc:format>image/svg+xml</dc:format>
        <dc:type
           rdf:resource="http://purl.org/dc/dcmitype/StillImage" />
        <dc:title />
      </cc:Work>
    </rdf:RDF>
  </metadata>
  <g
     transform="translate(0,-191.16667)"
     id="layer1"
     inkscape:groupmode="layer"
     inkscape:label="Calque 1">
    <g
       id="g1073"
       transform="matrix(0.26458333,0,0,0.26458333,14.898341,216.66592)">
      <path
         inkscape:connector-curvature="0"
         id="path3752"
         d="m 75.7028,5.800189 -34.43333,88.446396 6.07647,0.33758 3.71339,2.70065 2.70066,6.751645 15.19117,-0.67517 L 65.57535,77.367505 82.79201,8.163261 Z"
         style="fill:#d40000;fill-opacity:1;stroke:none;stroke-width:1px;stroke-linecap:butt;stroke-linejoin:miter;stroke-opacity:1" />
      <path
         inkscape:connector-curvature="0"
         id="path2982"
         d="m 69.96391,4.112281 -29.70719,65.828424 -29.3696,33.083005 21.60522,-0.33758 2.36307,-6.076475 5.73889,-3.03823 h 3.37582 L 76.04038,5.800189 Z"
         style="fill:#ffffff;fill-opacity:1;stroke:none;stroke-width:1px;stroke-linecap:butt;stroke-linejoin:miter;stroke-opacity:0" />
      <path
         sodipodi:nodetypes="ccccccsccccccccccccsccccsssss"
         style="fill:#000407;fill-opacity:1;fill-rule:evenodd;stroke:none"
         id="path27763"
         d="M 68.15625,0 37.6875,68.062495 7.90625,100.65625 H 0.125 L 0,106.3125 h 31.0625 c 1.28732,5.53295 6.23327,9.65624 12.15625,9.65625 5.92495,0 10.87095,-4.12052 12.15625,-9.65625 H 79.5 v -5.65625 H 71.71875 L 69.25,78.312495 85.875,5.6875 Z m 4.25,8.5 4.96875,1.78125 -15.21875,68.031245 2.46875,22.343755 h -9.25 c -1.28251,-5.539565 -6.22858,-9.687505 -12.15625,-9.687505 -5.92576,0 -10.87178,4.15063 -12.15625,9.687505 H 17.46875 l 26.25,-28.375005 z m -21.7,94.98125 c 0,4.14 -3.36,7.5 -7.5,7.5 -4.14,0 -7.5,-3.36 -7.5,-7.5 0,-4.140005 3.36,-7.500005 7.5,-7.500005 4.14,0 7.5,3.36 7.5,7.500005 z"
         inkscape:connector-curvature="0" />
    </g>
  </g>
</svg>
