<?xml version="1.0" encoding="UTF-8" standalone="no"?>
<!-- Created with Inkscape (http://www.inkscape.org/) -->

<svg
   xmlns:dc="http://purl.org/dc/elements/1.1/"
   xmlns:cc="http://creativecommons.org/ns#"
   xmlns:rdf="http://www.w3.org/1999/02/22-rdf-syntax-ns#"
   xmlns:svg="http://www.w3.org/2000/svg"
   xmlns="http://www.w3.org/2000/svg"
   xmlns:sodipodi="http://sodipodi.sourceforge.net/DTD/sodipodi-0.dtd"
   xmlns:inkscape="http://www.inkscape.org/namespaces/inkscape"
   width="200"
   height="400"
   viewBox="0 0 52.916668 105.83333"
   version="1.1"
   id="svg8"
   inkscape:version="0.92.5 (2060ec1f9f, 2020-04-08)"
   sodipodi:docname="LNDMRK_CATLMK_7_17_PYLONS_test.svg">
  <sodipodi:namedview
     id="base"
     pagecolor="#ffffff"
     bordercolor="#666666"
     borderopacity="1.0"
     inkscape:pageopacity="0.0"
     inkscape:pageshadow="2"
     inkscape:zoom="2.8284273"
     inkscape:cx="136.27801"
     inkscape:cy="210.83984"
     inkscape:document-units="mm"
     inkscape:current-layer="g740"
     showgrid="true"
     fit-margin-top="0"
     fit-margin-left="0"
     fit-margin-right="0"
     fit-margin-bottom="0"
     units="px"
     inkscape:window-width="1920"
     inkscape:window-height="1017"
     inkscape:window-x="1912"
     inkscape:window-y="-8"
     inkscape:window-maximized="1">
    <inkscape:grid
       originy="-1.6023925e-007"
       originx="0"
       id="grid23"
       type="xygrid" />
    <sodipodi:guide
       id="guide350"
       position="26.4583333328,0"
       orientation="1,0"
       inkscape:locked="false" />
    <sodipodi:guide
       id="guide352"
       position="0,52.9166666656"
       orientation="0,1"
       inkscape:locked="false" />
  </sodipodi:namedview>
  <defs
     id="defs2" />
  <metadata
     id="metadata5">
    <rdf:RDF>
      <cc:Work
         rdf:about="">
        <dc:format>image/svg+xml</dc:format>
        <dc:type
           rdf:resource="http://purl.org/dc/dcmitype/StillImage" />
        <dc:title></dc:title>
      </cc:Work>
    </rdf:RDF>
  </metadata>
  <g
     transform="translate(-51.247666,-50.62626)"
     id="layer1"
     inkscape:groupmode="layer"
     inkscape:label="Calque 1">
    <g
       id="g107"
       transform="translate(24.786129,73.189315)">
      <g
         inkscape:label="Calque 1"
         id="layer1-8"
         transform="translate(-72.445977,-88.41006)">
        <g
           transform="translate(90.098513,-33.584874)"
           id="g949">
          <g
             inkscape:label="Calque 1"
             id="layer1-6"
             transform="translate(-89.897093,33.690368)">
            <g
               transform="translate(10.842793,-36.169005)"
               id="g858">
              <g
                 inkscape:label="Calque 1"
                 id="layer1-07"
                 transform="translate(-10.938001,36.004736)">
                <g
                   id="g784"
                   transform="translate(5.7796696,-40.33357)">
                  <g
                     transform="translate(-3.1304918,40.367138)"
                     id="layer1-5"
                     inkscape:label="Calque 1">
                    <g
                       transform="translate(3.0227785,-38.420563)"
                       id="g740">
                      <g
                         id="g5757"
                         transform="translate(2.9850545e-6,-53.036313)">
                        <g
                           transform="translate(-25.868026,62.045538)"
                           id="g5749">
                          <path
                             fill="param(fill) #FFF"
							 stroke="param(outline) #000"
							 style="stroke-width:0.05587471"
                             inkscape:connector-curvature="0"
                             id="path5518"
                             d="m 150.98718,136.64804 h -11.06431 c -0.18573,0 -0.36078,-0.0858 -0.47471,-0.232 -0.11394,-0.14624 -0.15388,-0.33722 -0.10848,-0.51706 l 1.52214,-6.01659 c 0.0677,-0.26738 0.30753,-0.4542 0.58322,-0.4542 h 8.0197 c 0.27566,0 0.51575,0.18683 0.58322,0.4542 l 1.52214,6.01659 c 0.0456,0.17985 0.006,0.37082 -0.10848,0.51706 -0.11372,0.14623 -0.28876,0.232 -0.4745,0.232 z m -10.291,-1.20348 h 9.51826 l -1.21746,-4.81333 h -7.08324 z" />
                          <path
                             fill="param(fill) #FFF"
						     stroke="param(outline) #000"
							 style="stroke-width:0.05587471"
                             inkscape:connector-curvature="0"
                             id="path5520"
                             d="m 149.46516,130.63145 h -8.0197 c -0.18574,0 -0.36078,-0.0858 -0.47472,-0.232 -0.11393,-0.14624 -0.15387,-0.33722 -0.10847,-0.51706 l 1.97919,-7.82302 c 0.0674,-0.26737 0.30753,-0.4542 0.583,-0.4542 h 4.06142 c 0.27566,0 0.51575,0.18683 0.58322,0.4542 l 1.97919,7.82302 c 0.0456,0.17985 0.006,0.37082 -0.10847,0.51706 -0.11394,0.14623 -0.28898,0.232 -0.47472,0.232 z m -7.24695,-1.20326 h 6.47364 l -1.67451,-6.61947 h -3.12462 z" />
                          <path
                             fill="param(fill) #FFF"
						     stroke="param(outline) #000"
							 style="stroke-width:0.05587471"
                             inkscape:connector-curvature="0"
                             id="path5522"
                             d="m 153.87982,148.08057 h -16.84846 c -0.18574,0 -0.36079,-0.0858 -0.47472,-0.23201 -0.11393,-0.14624 -0.15387,-0.33722 -0.10848,-0.51706 l 1.37005,-5.41549 c 0.0674,-0.26759 0.30753,-0.45442 0.58322,-0.45442 h 14.10837 c 0.27566,0 0.51575,0.18684 0.58322,0.4542 l 1.37005,5.41549 c 0.0456,0.17985 0.006,0.37083 -0.10848,0.51706 -0.11393,0.14646 -0.28898,0.23223 -0.47472,0.23223 z M 137.8041,146.8773 h 15.30297 l -1.06531,-4.212 -13.1719,-1.6e-4 z" />
                          <path
                             fill="param(fill) #FFF"
						     stroke="param(outline) #000"
						     style="stroke-width:0.05587471"
                             inkscape:connector-curvature="0"
                             id="path5524"
                             d="M 152.50977,142.66519 H 138.4014 c -0.18573,0 -0.36078,-0.0858 -0.47471,-0.23201 -0.11394,-0.14623 -0.15388,-0.33721 -0.10848,-0.51706 l 1.52214,-6.01714 c 0.0677,-0.26759 0.30775,-0.45442 0.58322,-0.45442 h 11.06431 c 0.27567,0 0.51597,0.18683 0.58322,0.4542 l 1.52214,6.01715 c 0.0456,0.17984 0.006,0.37082 -0.10847,0.51705 -0.11372,0.14646 -0.28877,0.23223 -0.4745,0.23223 z m -13.33562,-1.20349 h 12.56231 l -1.21745,-4.81371 h -10.12729 z" />
                        </g>
                        <rect
                           y="208.80319"
                           x="107.68143"
                           height="1.3229153"
                           width="23.812498"
                           id="rect5738"
                           fill="param(fill) #FFF"
						   style="fill-opacity:1;stroke:none;stroke-width:1.12482524;stroke-miterlimit:4;stroke-dasharray:none" />
                      </g>
                    </g>
                  </g>
                </g>
              </g>
            </g>
          </g>
        </g>
      </g>
    </g>
  </g>
</svg>
