<?xml version="1.0" encoding="UTF-8" standalone="no"?>
<!-- Created with Inkscape (http://www.inkscape.org/) -->

<svg
   xmlns:dc="http://purl.org/dc/elements/1.1/"
   xmlns:cc="http://creativecommons.org/ns#"
   xmlns:rdf="http://www.w3.org/1999/02/22-rdf-syntax-ns#"
   xmlns:svg="http://www.w3.org/2000/svg"
   xmlns="http://www.w3.org/2000/svg"
   xmlns:sodipodi="http://sodipodi.sourceforge.net/DTD/sodipodi-0.dtd"
   xmlns:inkscape="http://www.inkscape.org/namespaces/inkscape"
   width="200"
   height="400"
   viewBox="0 0 52.916668 105.83333"
   version="1.1"
   id="svg8"
   inkscape:version="0.92.3 (2405546, 2018-03-11)"
   sodipodi:docname="NEWOBJ.svg">
  <sodipodi:namedview
     id="base"
     pagecolor="#ffffff"
     bordercolor="#666666"
     borderopacity="1.0"
     inkscape:pageopacity="0.0"
     inkscape:pageshadow="2"
     inkscape:zoom="2.8284273"
     inkscape:cx="64.829595"
     inkscape:cy="262.92348"
     inkscape:document-units="mm"
     inkscape:current-layer="g740"
     showgrid="true"
     fit-margin-top="0"
     fit-margin-left="0"
     fit-margin-right="0"
     fit-margin-bottom="0"
     units="px"
     inkscape:window-width="1920"
     inkscape:window-height="1178"
     inkscape:window-x="-8"
     inkscape:window-y="-8"
     inkscape:window-maximized="1">
    <inkscape:grid
       originy="-1.6023925e-007"
       originx="0"
       id="grid23"
       type="xygrid" />
    <sodipodi:guide
       id="guide350"
       position="26.4583333328,0"
       orientation="1,0"
       inkscape:locked="false" />
    <sodipodi:guide
       id="guide352"
       position="0,52.9166666656"
       orientation="0,1"
       inkscape:locked="false" />
  </sodipodi:namedview>
  <defs
     id="defs2"><inkscape:perspective
   id="perspective10"
   inkscape:persp3d-origin="372.04724 : 350.78739 : 1"
   inkscape:vp_z="744.09448 : 526.18109 : 1"
   inkscape:vp_y="0 : 1000 : 0"
   inkscape:vp_x="0 : 526.18109 : 1"
   sodipodi:type="inkscape:persp3d" />


</defs>
  <metadata
     id="metadata5">
    <rdf:RDF>
      <cc:Work
         rdf:about="">
        <dc:format>image/svg+xml</dc:format>
        <dc:type
           rdf:resource="http://purl.org/dc/dcmitype/StillImage" />
        <dc:title></dc:title>
      </cc:Work>
    </rdf:RDF>
  </metadata>
  <g
     transform="translate(-51.247666,-50.62626)"
     id="layer1"
     inkscape:groupmode="layer"
     inkscape:label="Calque 1">
    <g
       id="g107"
       transform="translate(24.786129,73.189315)">
      <g
         inkscape:label="Calque 1"
         id="layer1-8"
         transform="translate(-72.445977,-88.41006)">
        <g
           transform="translate(90.098513,-33.584874)"
           id="g949">
          <g
             inkscape:label="Calque 1"
             id="layer1-6"
             transform="translate(-89.897093,33.690368)">
            <g
               transform="translate(10.842793,-36.169005)"
               id="g858">
              <g
                 inkscape:label="Calque 1"
                 id="layer1-07"
                 transform="translate(-10.938001,36.004736)">
                <g
                   id="g784"
                   transform="translate(5.7796696,-40.33357)">
                  <g
                     transform="translate(-3.1304918,40.367138)"
                     id="layer1-5"
                     inkscape:label="Calque 1">
                    <g
                       transform="translate(3.0227785,-38.420563)"
                       id="g740">
                      <g
                         style="fill:#800080"
                         transform="translate(-59.307767,19.893237)"
                         id="layer1-8-7"
                         inkscape:label="Calque 1">
                        <g
                           inkscape:label="Calque 1"
                           id="layer1-6-1"
                           transform="translate(-39.087199,-19.912993)"
                           style="fill:#800080">
                          <path
                             inkscape:connector-curvature="0"
                             id="path124"
                             d="m 216.92431,160.66877 c -1.98975,-0.8349 -2.88514,-2.87311 -2.13865,-4.86829 0.27322,-0.73027 1.05112,-1.55945 1.81646,-1.93623 1.90006,-0.9354 4.13366,-0.14918 5.04601,1.77616 0.26555,0.5604 0.29076,0.69522 0.28967,1.54926 -0.001,0.85902 -0.0254,0.98512 -0.29772,1.54348 -0.38356,0.78649 -1.03969,1.44519 -1.80583,1.81291 -0.52864,0.25373 -0.7241,0.29517 -1.49671,0.31732 -0.75849,0.0217 -0.96552,-0.007 -1.41323,-0.19461 z m 2.38922,-0.81879 c 0.62488,-0.2338 1.24051,-0.80709 1.55247,-1.44571 0.18349,-0.37561 0.22776,-0.61173 0.22776,-1.2146 0,-0.8206 -0.16994,-1.29649 -0.68594,-1.9208 -0.69056,-0.83553 -2.10621,-1.16652 -3.20912,-0.7503 -1.47713,0.55745 -2.22086,2.35654 -1.57869,3.8189 0.26175,0.59607 1.04554,1.34711 1.61682,1.54928 0.58651,0.20757 1.46523,0.19201 2.0767,-0.0368 z"
                             style="fill:#800080;fill-opacity:1;stroke-width:0.09354433" />
                          <path
                             inkscape:connector-curvature="0"
                             id="path148"
                             d="m 217.98265,158.02295 c -0.35185,-0.19196 -0.53788,-0.49047 -0.53788,-0.86307 0,-0.54873 0.39875,-0.94993 0.93925,-0.94501 0.32233,0.003 0.59598,0.13352 0.77692,0.37074 0.11221,0.14712 0.1336,0.22377 0.14695,0.52662 0.0178,0.40276 -0.0516,0.55158 -0.38074,0.81643 -0.15252,0.12275 -0.2229,0.14525 -0.49111,0.15706 -0.22289,0.01 -0.3535,-0.008 -0.45339,-0.0628 z"
                             style="fill:#800080;fill-opacity:1;stroke-width:0.04677217" />
                        </g>
                      </g>
                      <path
                         style="fill:#800080;fill-opacity:1;stroke-width:0.19688411"
                         d="m 115.90885,177.16042 c -7.89519,-1.56875 -14.13267,-7.26458 -16.355566,-14.93533 -2.763271,-9.5354 1.672166,-19.8261 10.522786,-24.41414 4.87937,-2.52941 10.31038,-3.07726 15.52513,-1.56609 9.06956,2.62827 15.1888,10.77174 15.1888,20.2133 0,5.87045 -2.14842,10.95632 -6.3509,15.03427 -3.1272,3.03453 -6.64197,4.8823 -10.78018,5.6673 -1.97192,0.37407 -5.8692,0.37441 -7.75007,5.5e-4 z m 8.44132,-5.39886 c 5.22131,-1.65905 9.08304,-5.52138 10.73335,-10.73502 0.66037,-2.08621 0.76649,-5.92901 0.22618,-8.18975 -1.4025,-5.86825 -5.67791,-10.24088 -11.55019,-11.81284 -2.08994,-0.55946 -5.68759,-0.60424 -7.67847,-0.0956 -3.21051,0.82028 -6.34759,2.76864 -8.51228,5.28676 -1.23582,1.43757 -2.81891,4.55654 -3.32065,6.54225 -0.50427,1.99578 -0.45762,5.5974 0.0995,7.67848 1.54454,5.7699 5.86724,10.05323 11.63501,11.52907 2.08585,0.53372 6.37596,0.42943 8.36757,-0.2034 z"
                         id="path88"
                         inkscape:connector-curvature="0" />
                      
                      <path
                         style="fill:#800080;fill-opacity:1;stroke-width:0.35355338"
                         d="m 126.55196,108.24424 c -2.26867,-6.02127 -6.70946,-18.13884 -6.70946,-18.308085 0,-0.107831 1.13482,-0.149313 2.52183,-0.09218 l 2.52183,0.103877 2.67627,7.513009 c 1.47195,4.132159 2.76393,7.513009 2.87107,7.513009 0.10714,0 1.40199,-3.38085 2.87744,-7.513009 l 2.68264,-7.513009 2.57517,-0.104768 c 1.99011,-0.08096 2.53828,-6.39e-4 2.41279,0.353554 -0.0893,0.252076 -1.79727,4.873319 -3.79545,10.269432 l -3.63307,9.8111 h -3.11755 -3.11754 z"
                         id="path162"
                         inkscape:connector-curvature="0"
                         transform="matrix(0.26458333,0,0,0.26458333,93.129346,104.29278)" />
                      <path
                         style="fill:#800080;fill-opacity:1;stroke-width:0.35355338"
                         d="m 140.3486,102.32222 v -1.94454 h 4.24264 4.24264 v 1.94454 1.94454 h -4.24264 -4.24264 z"
                         id="path164"
                         inkscape:connector-curvature="0"
                         transform="matrix(0.26458333,0,0,0.26458333,93.129346,104.29278)" />
                      <path
                         style="fill:#800080;fill-opacity:1;stroke-width:0.35355338"
                         d="m 148.53385,109.9893 c 0.0678,-0.17615 1.78079,-4.80292 3.80667,-10.281724 l 3.68343,-9.961461 3.1812,0.100869 3.18121,0.100868 3.4825,9.369165 c 1.91538,5.153043 3.57674,9.727133 3.69192,10.164663 0.20243,0.769 0.12719,0.79549 -2.25951,0.79549 h -2.46891 l -0.66666,-1.85615 -0.66666,-1.85616 -4.27932,-0.0989 -4.27931,-0.0989 -0.66983,1.86665 -0.66982,1.86665 -2.59508,0.10459 c -1.45102,0.0585 -2.54074,-0.0366 -2.47183,-0.21568 z m 12.25372,-11.409063 c -0.78604,-2.349773 -1.54574,-4.139637 -1.68821,-3.977476 -0.23992,0.273066 -2.84086,7.659099 -2.84086,8.067329 0,0.10035 1.3406,0.18246 2.97912,0.18246 h 2.97913 z"
                         id="path166"
                         inkscape:connector-curvature="0"
                         transform="matrix(0.26458333,0,0,0.26458333,93.129346,104.29278)" />
                      <path
                         style="fill:#800080;fill-opacity:1;stroke-width:0.35355338"
                         d="M 171.46129,100.02412 V 89.771075 h 2.65165 2.65165 v 10.253045 10.25305 h -2.65165 -2.65165 z"
                         id="path168"
                         inkscape:connector-curvature="0"
                         transform="matrix(0.26458333,0,0,0.26458333,93.129346,104.29278)" />
                      <path
                         style="fill:#800080;fill-opacity:1;stroke-width:0.35355338"
                         d="m 181.53756,110.00192 -2.12132,-0.60947 -0.10737,-2.07763 c -0.0975,-1.8855 -0.0484,-2.05302 0.53033,-1.81156 3.8108,1.58992 7.47718,2.00409 9.31732,1.05252 0.85272,-0.44096 1.0431,-0.76455 1.0431,-1.77296 0,-1.54136 -1.19807,-2.36374 -4.3457,-2.983 -2.83833,-0.55841 -5.41246,-1.884179 -6.0255,-3.103358 -1.70835,-3.397465 -0.52049,-7.12673 2.74201,-8.608486 1.68299,-0.764372 5.46527,-0.883276 8.92606,-0.280606 l 2.23866,0.389847 v 2.069343 2.069343 l -1.5026,-0.562982 c -0.8842,-0.331286 -2.71523,-0.579466 -4.44907,-0.603035 -2.6945,-0.03663 -3.00442,0.03133 -3.62393,0.79461 -1.44976,1.786208 -0.41833,2.910594 3.43116,3.740396 5.79211,1.248556 7.55866,2.782138 7.55866,6.561868 0,2.39367 -0.83318,4.08207 -2.58716,5.2428 -1.2799,0.84699 -1.77583,0.94498 -5.15966,1.01945 -2.69541,0.0593 -4.33765,-0.0883 -5.86499,-0.52709 z"
                         id="path170"
                         inkscape:connector-curvature="0"
                         transform="matrix(0.26458333,0,0,0.26458333,93.129346,104.29278)" />
                    </g>
                  </g>
                </g>
              </g>
            </g>
          </g>
        </g>
      </g>
    </g>
  </g>
</svg>
