<?xml version="1.0" encoding="UTF-8" standalone="no"?>
<!-- Created with Inkscape (http://www.inkscape.org/) -->

<svg
   xmlns:dc="http://purl.org/dc/elements/1.1/"
   xmlns:cc="http://creativecommons.org/ns#"
   xmlns:rdf="http://www.w3.org/1999/02/22-rdf-syntax-ns#"
   xmlns:svg="http://www.w3.org/2000/svg"
   xmlns="http://www.w3.org/2000/svg"
   xmlns:sodipodi="http://sodipodi.sourceforge.net/DTD/sodipodi-0.dtd"
   xmlns:inkscape="http://www.inkscape.org/namespaces/inkscape"
   width="200"
   height="400"
   viewBox="0 0 52.916668 105.83333"
   version="1.1"
   id="svg8"
   inkscape:version="0.92.5 (2060ec1f9f, 2020-04-08)"
   sodipodi:docname="OFSPLF_2.svg">
  <sodipodi:namedview
     id="base"
     pagecolor="#ffffff"
     bordercolor="#666666"
     borderopacity="1.0"
     inkscape:pageopacity="0.0"
     inkscape:pageshadow="2"
     inkscape:zoom="2.0000001"
     inkscape:cx="-23.38076"
     inkscape:cy="238.62126"
     inkscape:document-units="mm"
     inkscape:current-layer="g740"
     showgrid="true"
     fit-margin-top="0"
     fit-margin-left="0"
     fit-margin-right="0"
     fit-margin-bottom="0"
     units="px"
     inkscape:window-width="2560"
     inkscape:window-height="1377"
     inkscape:window-x="-8"
     inkscape:window-y="-8"
     inkscape:window-maximized="1">
    <inkscape:grid
       originy="-1.6023925e-007"
       originx="0"
       id="grid23"
       type="xygrid" />
    <sodipodi:guide
       id="guide350"
       position="26.4583333328,0"
       orientation="1,0"
       inkscape:locked="false" />
    <sodipodi:guide
       id="guide352"
       position="0,52.9166666656"
       orientation="0,1"
       inkscape:locked="false" />
  </sodipodi:namedview>
  <defs
     id="defs2" />
  <metadata
     id="metadata5">
    <rdf:RDF>
      <cc:Work
         rdf:about="">
        <dc:format>image/svg+xml</dc:format>
        <dc:type
           rdf:resource="http://purl.org/dc/dcmitype/StillImage" />
        <dc:title></dc:title>
      </cc:Work>
    </rdf:RDF>
  </metadata>
  <g
     transform="translate(-51.247666,-50.62626)"
     id="layer1"
     inkscape:groupmode="layer"
     inkscape:label="Calque 1">
    <g
       id="g107"
       transform="translate(24.786129,73.189315)">
      <g
         inkscape:label="Calque 1"
         id="layer1-8"
         transform="translate(-72.445977,-88.41006)">
        <g
           transform="translate(90.098513,-33.584874)"
           id="g949">
          <g
             inkscape:label="Calque 1"
             id="layer1-6"
             transform="translate(-89.897093,33.690368)">
            <g
               transform="translate(10.842793,-36.169005)"
               id="g858">
              <g
                 inkscape:label="Calque 1"
                 id="layer1-07"
                 transform="translate(-10.938001,36.004736)">
                <g
                   id="g784"
                   transform="translate(5.7796696,-40.33357)">
                  <g
                     transform="translate(-3.1304918,40.367138)"
                     id="layer1-5"
                     inkscape:label="Calque 1">
                    <g
                       transform="translate(3.0227785,-38.420563)"
                       id="g740">
                      <path
                         inkscape:connector-curvature="0"
                         fill="param(fill) #FFF"
                         stroke="param(outline) #000"
                         style="fill-opacity:1;fill-rule:evenodd;stroke-width:0.07265848;stroke-linecap:butt;stroke-linejoin:bevel;stroke-miterlimit:22.9260006;stroke-dasharray:none;stroke-opacity:1"
                         d="m 111.2007,148.10221 c -0.0299,-3.4e-4 -0.0531,0.004 -0.0827,0.008 -0.0295,0.004 -0.0621,0.008 -0.0909,0.0165 -0.0289,0.008 -0.0552,0.013 -0.0827,0.0248 -0.0272,0.0115 -0.0572,0.0265 -0.0827,0.0414 -0.0259,0.0152 -0.0506,0.0314 -0.0744,0.0496 -0.0235,0.0182 -0.0453,0.0366 -0.0661,0.0579 -0.0212,0.0212 -0.0397,0.0508 -0.0579,0.0744 -0.0181,0.0239 -0.0348,0.0488 -0.0496,0.0744 -0.0154,0.026 -0.0299,0.0468 -0.0413,0.0744 -0.0118,0.0276 -0.0174,0.062 -0.0248,0.0909 -0.008,0.029 -0.0211,0.053 -0.0248,0.0827 -0.004,0.0293 0,0.061 0,0.091 v 16.84238 c -3.7e-4,0.0297 -0.004,0.053 0,0.0827 0.004,0.0297 0.0164,0.062 0.0248,0.0909 0.008,0.0287 0.0131,0.055 0.0248,0.0827 0.0114,0.0276 0.0263,0.0571 0.0413,0.0827 0.0148,0.026 0.0315,0.0508 0.0496,0.0744 0.0181,0.0239 0.0367,0.0453 0.0579,0.0662 0.0208,0.0216 0.0426,0.0393 0.0661,0.0579 0.0238,0.0182 0.0486,0.0348 0.0744,0.0496 0.0255,0.0155 0.0552,0.0299 0.0827,0.0414 0.0275,0.0114 0.0538,0.0257 0.0827,0.0331 0.0289,0.008 0.0614,0.0125 0.0909,0.0165 0.0295,0.004 0.0528,0.008 0.0827,0.008 h 0.008 16.7597 c 0.0299,0 0.0614,-0.004 0.0909,-0.008 0.0296,-0.004 0.0621,-0.008 0.091,-0.0165 0.0289,-0.008 0.0551,-0.0216 0.0827,-0.0331 0.0275,-0.0115 0.0569,-0.0262 0.0827,-0.0414 0.0255,-0.0148 0.0509,-0.0314 0.0744,-0.0496 0.0238,-0.0182 0.045,-0.0363 0.0662,-0.0579 0.0211,-0.0209 0.0397,-0.0426 0.0579,-0.0662 0.0181,-0.0236 0.0348,-0.0485 0.0496,-0.0744 0.0154,-0.0256 0.0299,-0.0554 0.0413,-0.0827 0.0118,-0.0276 0.0174,-0.054 0.0248,-0.0827 0.008,-0.029 0.0125,-0.0613 0.0165,-0.0909 0.004,-0.0297 0.008,-0.053 0.008,-0.0827 v -16.84238 c 3.7e-4,-0.03 -0.004,-0.0616 -0.008,-0.091 -0.004,-0.0297 -0.008,-0.0537 -0.0165,-0.0827 -0.008,-0.029 -0.0134,-0.0633 -0.0248,-0.0909 -0.0114,-0.0276 -0.0262,-0.0484 -0.0413,-0.0744 -0.0148,-0.0256 -0.0315,-0.0505 -0.0496,-0.0744 -0.0181,-0.0236 -0.0367,-0.0532 -0.0579,-0.0744 -0.0212,-0.0212 -0.0423,-0.0397 -0.0662,-0.0579 -0.0235,-0.0182 -0.0489,-0.0344 -0.0744,-0.0496 -0.0258,-0.0152 -0.0552,-0.0299 -0.0827,-0.0414 -0.0275,-0.0118 -0.0538,-0.0174 -0.0827,-0.0248 -0.0289,-0.008 -0.0614,-0.0125 -0.091,-0.0165 -0.0295,-0.004 -0.0611,-0.008 -0.0909,-0.008 z m 2.00092,3.02618 h 12.50983 v 12.50983 h -12.50983 z m 6.25078,3.33209 c -1.61098,0 -2.91869,1.30804 -2.91869,2.91869 0,1.61065 1.30771,2.91868 2.91869,2.91868 1.61098,0 2.91868,-1.30803 2.91868,-2.91868 0,-1.61065 -1.3077,-2.91869 -2.91868,-2.91869 z"
                         id="path7842" />
                    </g>
                  </g>
                </g>
              </g>
            </g>
          </g>
        </g>
      </g>
    </g>
  </g>
</svg>
