<?xml version="1.0" encoding="UTF-8" standalone="no"?>
<!-- Created with Inkscape (http://www.inkscape.org/) -->

<svg
   xmlns:dc="http://purl.org/dc/elements/1.1/"
   xmlns:cc="http://creativecommons.org/ns#"
   xmlns:rdf="http://www.w3.org/1999/02/22-rdf-syntax-ns#"
   xmlns:svg="http://www.w3.org/2000/svg"
   xmlns="http://www.w3.org/2000/svg"
   xmlns:sodipodi="http://sodipodi.sourceforge.net/DTD/sodipodi-0.dtd"
   xmlns:inkscape="http://www.inkscape.org/namespaces/inkscape"
   width="200"
   height="400"
   viewBox="0 0 52.916668 105.83333"
   version="1.1"
   id="svg8"
   inkscape:version="0.92.5 (2060ec1f9f, 2020-04-08)"
   sodipodi:docname="VEGATN.svg">
  <sodipodi:namedview
     id="base"
     pagecolor="#ffffff"
     bordercolor="#666666"
     borderopacity="1.0"
     inkscape:pageopacity="0.0"
     inkscape:pageshadow="2"
     inkscape:zoom="2.8284273"
     inkscape:cx="-69.171534"
     inkscape:cy="246.86249"
     inkscape:document-units="mm"
     inkscape:current-layer="g740"
     showgrid="true"
     fit-margin-top="0"
     fit-margin-left="0"
     fit-margin-right="0"
     fit-margin-bottom="0"
     units="px"
     inkscape:window-width="2560"
     inkscape:window-height="1377"
     inkscape:window-x="-8"
     inkscape:window-y="-8"
     inkscape:window-maximized="1">
    <inkscape:grid
       originy="-1.6023925e-007"
       originx="0"
       id="grid23"
       type="xygrid" />
    <sodipodi:guide
       id="guide350"
       position="26.4583333328,0"
       orientation="1,0"
       inkscape:locked="false" />
    <sodipodi:guide
       id="guide352"
       position="0,52.9166666656"
       orientation="0,1"
       inkscape:locked="false" />
  </sodipodi:namedview>
  <defs
     id="defs2" />
  <metadata
     id="metadata5">
    <rdf:RDF>
      <cc:Work
         rdf:about="">
        <dc:format>image/svg+xml</dc:format>
        <dc:type
           rdf:resource="http://purl.org/dc/dcmitype/StillImage" />
        <dc:title></dc:title>
      </cc:Work>
    </rdf:RDF>
  </metadata>
  <g
     transform="translate(-51.247666,-50.62626)"
     id="layer1"
     inkscape:groupmode="layer"
     inkscape:label="Calque 1">
    <g
       id="g107"
       transform="translate(24.786129,73.189315)">
      <g
         inkscape:label="Calque 1"
         id="layer1-8"
         transform="translate(-72.445977,-88.41006)">
        <g
           transform="translate(90.098513,-33.584874)"
           id="g949">
          <g
             inkscape:label="Calque 1"
             id="layer1-6"
             transform="translate(-89.897093,33.690368)">
            <g
               transform="translate(10.842793,-36.169005)"
               id="g858">
              <g
                 inkscape:label="Calque 1"
                 id="layer1-07"
                 transform="translate(-10.938001,36.004736)">
                <g
                   id="g784"
                   transform="translate(5.7796696,-40.33357)">
                  <g
                     transform="translate(-3.1304918,40.367138)"
                     id="layer1-5"
                     inkscape:label="Calque 1">
                    <g
                       transform="translate(3.0227785,-38.420563)"
                       id="g740">
                      <path
                         style="fill:#87591a;fill-opacity:1;fill-rule:evenodd;stroke-width:0.0617269;stroke-linecap:butt;stroke-linejoin:bevel;stroke-miterlimit:22.9260006;stroke-dasharray:none;stroke-opacity:1"
                         d="m 110.14779,156.7318 v 1.27139 h 6.67303 c 0.28937,1.24366 1.40109,2.17049 2.73244,2.1705 1.33181,0 2.44354,-0.9262 2.73244,-2.1705 h 6.70817 v -0.0143 -1.25735 m -6.70817,0 c -0.50645,-1.15774 -1.18106,-1.88478 -2.24451,-2.12825 -0.0419,-0.008 -0.0907,-7.27903 -0.0907,-7.27903 l -0.0277,-0.93677 -0.8512,-0.0793 c -1.68255,0.2425 -6.15914,-0.23237 -7.44528,-1.17914 -2.96699,-0.62106 -4.72579,-2.03502 -1.68977,-5.65754 0.77872,-2.58477 1.80179,-4.29006 3.03312,-5.33793 1.63244,-1.3892 3.63092,-1.62298 5.91151,-1.2188 6.19064,-1.91489 4.9939,1.778 6.71059,5.01663 1.50135,2.31119 4.66303,2.72868 -0.003,5.63705 -1.91437,1.62993 -2.16127,3.52331 -5.66134,2.83135 l -4.2e-4,0.90976 c 3.00887,0.96183 4.46355,-1.45452 6.7362,-2.87123 3.84095,-2.67687 3.54773,-4.57978 -0.0868,-7.48319 -2.02843,-3.0513 -0.69036,-6.89671 -7.98555,-5.13431 -5.19984,-0.61612 -7.83255,1.14644 -9.65332,7.0054 -2.17941,3.21617 -2.67883,5.92276 2.22076,7.15682 1.82078,0.85815 6.03921,1.69747 7.91664,1.30972 0,0 0.069,7.30026 -0.0103,7.31059 -1.03603,0.21889 -2.0061,1.24036 -2.24467,2.12822 m 2.73241,-1.05364 c 0.93056,0 1.68582,0.75526 1.68582,1.68584 0,0.93057 -0.75526,1.68581 -1.68582,1.68581 -0.93059,0 -1.68583,-0.75524 -1.68583,-1.68581 0,-0.93058 0.75524,-1.68584 1.68583,-1.68584 z"
                         id="path7842"
                         inkscape:connector-curvature="0" />
                    </g>
                  </g>
                </g>
              </g>
            </g>
          </g>
        </g>
      </g>
    </g>
  </g>
</svg>
